<?xml version="1.0" encoding="utf-8"?>
<!-- Generator: Adobe Illustrator 26.3.1, SVG Export Plug-In . SVG Version: 6.00 Build 0)  -->
<svg version="1.1" id="Layer_1" xmlns="http://www.w3.org/2000/svg" xmlns:xlink="http://www.w3.org/1999/xlink" x="0px" y="0px"
	 viewBox="0 0 1500 1500" style="enable-background:new 0 0 1500 1500;" xml:space="preserve">
<style type="text/css">
	.st0{fill:#FAA31B;}
	.st1{fill:#F5831F;}
	.st2{fill:#010101;}
	.st3{fill:url(#SVGID_1_);}
	.st4{fill:url(#SVGID_00000008145302253908998520000004609389570401521328_);}
	.st5{fill:url(#SVGID_00000088118643186097734230000006884060042053224090_);}
	.st6{fill:#FEDF8A;}
	.st7{fill:#F6C169;}
	.st8{fill:#FCD660;}
	.st9{fill:url(#SVGID_00000148648127815499669450000014395261566760630945_);}
	.st10{fill:url(#SVGID_00000036230277551117168030000003648087270914627775_);}
	.st11{fill:url(#SVGID_00000170972495867686824420000005895363918114785188_);}
	.st12{fill:url(#SVGID_00000034810490667690678120000012522661906747144374_);}
	.st13{fill:url(#SVGID_00000155853977416820489150000002917468611219489687_);}
	.st14{fill:#EC1C30;}
	.st15{fill:#260F14;}
	.st16{fill:#361317;}
	.st17{fill:#FFFFFF;}
	.st18{fill:#180B0E;}
	.st19{fill:#F05223;}
	.st20{fill:#BDBEC0;}
	.st21{fill:none;stroke:#260F14;stroke-miterlimit:10;}
	.st22{fill:#BE202E;}
	.st23{fill:#77111A;}
	.st24{fill:#EF4237;}
	.st25{fill:#9F1C29;}
	.st26{fill:#AA1F26;}
	.st27{fill:#8E5B24;}
	.st28{fill:url(#SVGID_00000036234460287535418020000012492856775432904853_);}
	.st29{fill:url(#SVGID_00000054236589543797584500000017731809020577958326_);}
	.st30{opacity:0.11;fill:#FFFFFF;}
	.st31{opacity:0.3;fill:#FFFFFF;}
	.st32{fill:url(#SVGID_00000010284868029895169060000007705944039179901322_);}
	.st33{fill:url(#SVGID_00000031920043439937984470000009223986726734411955_);}
</style>
<g>
	<polygon class="st0" points="1354.51,251.31 1446.42,251.31 1242.84,751.37 1242.84,751.37 	"/>
	<polygon class="st1" points="826.9,1383.08 1194.76,1329.76 1175.32,1366.55 	"/>
	<polygon class="st1" points="231.41,998.57 235.74,1366.72 278.61,1359.48 	"/>
	<path class="st0" d="M261.1,773.98c-19.75-17.97-126.62-381.24-126.62-381.24l-74.13,14.44l179.09,425.04l92.03-30.73L261.1,773.98
		z"/>
	<polygon class="st0" points="817.47,257.56 800.46,167.88 150.71,262.96 167.25,376.74 167.25,376.74 302.28,1402.48 
		1194.76,1316.61 1333.96,222.35 	"/>
	<path class="st2" d="M766.68,1400.79c-52.52-0.41-104.96-12.38-152.03-35.7c-2.29,11.48-4.58,22.96-6.87,34.44
		c-55.01-14.46-103.34-52.64-130.15-102.81c-6.33,16.93-12.66,33.85-18.99,50.78c-57-47.64-94.97-117.46-103.97-191.21
		c-41.52,22.97-77.36,56.12-103.48,95.74c-3.14-74.45,8.82-149.5,34.94-219.28c-54.94,25.6-100.07,71.62-124.6,127.04
		c5.97-60.39,19.69-120,40.73-176.92c-38.88,15.78-72.53,44.15-94.66,79.8c3.9-70.23,13.19-145.39,59.72-198.14
		c28.83-32.69,69.95-54.04,93.77-90.55c43.79-67.11,14.12-154.93,3.1-234.3c-9.28-66.84-3.66-135.62,15.82-200.2
		c4.89-16.23,10.66-32.19,17.29-47.79c3.31-7.8,6.83-15.51,10.58-23.11c4.11-8.33,6.69-7.16,15.3-5.19
		c30.17,6.92,59.82,16.04,88.68,27.21c57.73,22.35,112.29,52.88,161.55,90.37c33,25.11,63.63,53.36,91.21,84.33
		c78.85-131.61,236.63-161.32,236.63-161.32c-15.53,17.16-31.07,34.32-46.6,51.48c15.41,31.36,30.81,62.72,46.22,94.07
		c92.97-83.6,207.15-143.42,328.8-172.26c56.31,105.95,64.13,236.48,20.88,348.39c-18.49,47.85-46.23,94.45-45.73,145.74
		c0.13,13.58,6.59,30.96,20.15,30.15c6.34-0.38,11.51-4.92,17.07-7.97c24.72-13.55,54.94,2.87,76.64,20.87
		c56.98,47.25,101.45,109.46,127.73,178.66c-30.38-13.79-60.75-27.58-91.13-41.37c11.23,31.14,22.46,62.29,33.69,93.43
		c-25.29-12.75-50.59-25.5-75.88-38.25c32.46,72.33,39.02,155.97,18.23,232.47c-23.06-51.83-65.53-94.75-117.11-118.36
		c12.52,45.84,12.89,94.94,1.07,140.97c-27.51-20.41-55.01-40.82-82.52-61.24c-52.87,91.19-137.46,163.57-235.73,201.71
		c0.61-8.79,1.22-17.57,1.83-26.36C857,1392.97,811.81,1401.15,766.68,1400.79z"/>
	<path class="st1" d="M314.43,673.02c0,0-78.3-219.35,9.62-386.95c0,0,182.27,30.22,334.28,204.68c0,0-14.67,26.1-20.62,53.57
		c0,0,87.6-153.85,189.18-190.49c0,0-43.11,47.62-49.52,119.97c0,0,56.78-45.79,62.27-97.08c0,0,46.71,120.89,141.95,210.63
		c0,0-49.45-60.44-59.53-128.21c0,0,139.66-122.26,296.26-156.6c0,0,86.54,151.11,0,343.43s13.74,178.58,13.74,178.58l24.73-15.11
		c0,0,72.81,5.49,141.49,137.37c0,0-47.79-21.98-100.13-41.21c0,0,32.82,31.6,53.43,94.79c0,0-40.97-22.07-92.04-28.85
		c0,0,76.93,67.31,59.07,204.68c0,0-35.72-57.7-137.37-92.04c0,0,29.31,84.71,19.23,138.74c0,0-50.37-39.38-74.18-51.28
		c0,0-97.53,159.81-204.68,196.9c0,0,1.83-16.03,1.37-27.02c0,0-155.92,90.21-318.7-7.33c0,0-10.99,20.61-13.74,37.09
		c0,0-74.87-22.67-113.33-126.38c0,0-21.98,45.33-28.85,66.62c0,0-47.39-32.28-79.67-187.51c0,0-65.79,31.14-94.6,65.94
		c0,0,2.33-100.74,53.62-190.49c0,0-96.16,19.23-129.13,66.85c0,0,13.74-79.67,54.03-119.97c0,0-89.75,18.32-118.14,51.28
		c0,0,10.91-130.96,139.62-187.74L314.43,673.02z"/>
	<linearGradient id="SVGID_1_" gradientUnits="userSpaceOnUse" x1="318.7715" y1="807.8782" x2="534.1638" y2="979.8301">
		<stop  offset="0.0196" style="stop-color:#F5831F"/>
		<stop  offset="0.514" style="stop-color:#EE3724"/>
		<stop  offset="1" style="stop-color:#EC1C30"/>
	</linearGradient>
	<path class="st3" d="M281.52,940.96c0,0,72.76,102.61,190.21,92.7s178.39-133.6,178.39-133.6l-116.35-11.82l-222.34,8.69
		L281.52,940.96z"/>
	
		<linearGradient id="SVGID_00000132086472459442708800000017096640502117778054_" gradientUnits="userSpaceOnUse" x1="714.4485" y1="479.7369" x2="570.363" y2="605.1761">
		<stop  offset="0" style="stop-color:#EE3724"/>
		<stop  offset="1" style="stop-color:#EC1C30"/>
	</linearGradient>
	<path style="fill:url(#SVGID_00000132086472459442708800000017096640502117778054_);" d="M693.9,594.7c0,0-17.57-35.51-71.14-52.2
		c0,0-49.75,78.15-87.23,50.98l46.13-32.67l16.93-23.81l6.94-59.53l9.18,3.66C614.72,481.14,676.37,524.18,693.9,594.7z"/>
	
		<linearGradient id="SVGID_00000042005912482766019860000012055697526905085579_" gradientUnits="userSpaceOnUse" x1="1182.3735" y1="795.0872" x2="973.3082" y2="992.8517">
		<stop  offset="0.0196" style="stop-color:#F5831F"/>
		<stop  offset="0.514" style="stop-color:#EE3724"/>
		<stop  offset="1" style="stop-color:#EC1C30"/>
	</linearGradient>
	<path style="fill:url(#SVGID_00000042005912482766019860000012055697526905085579_);" d="M1080.71,1038.85
		c0,0,154.18-20.41,201.19-162.28l-166.4,0l-75.3,35.42l-175.39-29.2c0,0,38.94,125.67,134.18,119.44l39.54,9.44l19.07,33.94
		L1080.71,1038.85z"/>
	<path class="st6" d="M574.53,592.47c0,0,57.31,23.54,75.59,74.24c0,0,1.79-21.8-4.62-28.82c0,0,11.45,12.21,15.57,31.44
		c0,0,23.42,6.1,27.93,25.18c4.51,19.08-42.13,11.29-42.13,11.29l-65.2-13.57l-10.81-47.63l-10.53-28.85l-6.39-35.31L574.53,592.47z
		"/>
	<g>
		<polygon class="st2" points="1108.89,1059.01 1103.45,1055.4 1102.76,1057.34 		"/>
		<path class="st2" d="M1099.75,1052.95l-69.59-46.14c0,0-106.26-1.83-184.51-12.97c-78.25-11.13-79.27-82.28-79.27-82.28
			c-20.15,100.28-255.51,82.28-255.51,82.28c-49.26,16.86-76.03,53.31-88.89,77.23l4.78,7.5c11.21-10.35,23.67-20.48,23.67-20.48
			c51.28,134.62,181.33,202.62,181.33,202.62c-0.69-4.81,0-30.91,0-30.91s48.08,78.3,213.9,60.44
			c165.82-17.86,226.25-241.31,226.25-241.31l26.71,7.28L1099.75,1052.95z"/>
		<path class="st2" d="M417.44,1080.16c-1.72,3.72-3,6.83-3.88,9.15c0.22,0.6,0.44,1.19,0.67,1.8c1.63-1.86,3.58-3.89,5.71-6.01
			L417.44,1080.16z"/>
	</g>
	<path class="st7" d="M658.33,511.66c0,0,35.89,30.38,35.57,83.04c0,0-12.69-49.45-41.99-79.67
		C622.6,484.81,658.33,511.66,658.33,511.66z"/>
	<path class="st8" d="M1008.74,584.52l-36.47-9.69c5.6,7.99,9.33,12.55,9.33,12.55c-59.51-56.07-100.07-124.3-122.12-167.61l0,0
		c0,0,46.06,152.49,120.27,208.13c74.21,55.64,43.98-9.38,43.98-9.38L1008.74,584.52z"/>
	
		<linearGradient id="SVGID_00000162344956110586759310000012944748240024286599_" gradientUnits="userSpaceOnUse" x1="1120.077" y1="318.3001" x2="1114.9917" y2="657.325">
		<stop  offset="0" style="stop-color:#EE3724"/>
		<stop  offset="1" style="stop-color:#EC1C30"/>
	</linearGradient>
	<path style="fill:url(#SVGID_00000162344956110586759310000012944748240024286599_);" d="M1164.07,393.22
		c0,0-34.98,17.7-32.97,74.18l12.01-37.09c0,0,45,85.17,12.72,171.71c-32.28,86.54-83.92-17.17-83.92-17.17l-4.68-122.26
		l43.96-58.38C1111.18,404.21,1144.84,391.85,1164.07,393.22z"/>
	
		<linearGradient id="SVGID_00000037680023244646099170000001657556071461006208_" gradientUnits="userSpaceOnUse" x1="437.8734" y1="308.0671" x2="432.788" y2="647.0919">
		<stop  offset="0" style="stop-color:#EE3724"/>
		<stop  offset="1" style="stop-color:#EC1C30"/>
	</linearGradient>
	<path style="fill:url(#SVGID_00000037680023244646099170000001657556071461006208_);" d="M377.17,384.07
		c0,0,42.11,33.76,41.67,72.35l-13.05-22.67c0,0-37.78,76.93,3.43,151.79s84.45-26.1,84.45-26.1l-8.9-96.16l-42.58-51.51
		l-22.67-15.11L377.17,384.07z"/>
	
		<linearGradient id="SVGID_00000168108305582665504710000000401052662612417198_" gradientUnits="userSpaceOnUse" x1="608.8617" y1="1343.3745" x2="313.2253" y2="1042.9113">
		<stop  offset="0.0196" style="stop-color:#F5831F"/>
		<stop  offset="0.514" style="stop-color:#EE3724"/>
		<stop  offset="1" style="stop-color:#EC1C30"/>
	</linearGradient>
	<path style="fill:url(#SVGID_00000168108305582665504710000000401052662612417198_);" d="M477.91,1214.7l-28.88,48.54
		c-49.03-52.2-69.34-150.65-69.34-150.65c-25.41-0.46-52.2,14.2-52.2,14.2c-13.74-63.88,8.24-132.79,8.24-132.79
		c-35.59-6.21-80.72,13.97-80.72,13.97c-1.73-35.72,6.54-67.04,6.54-67.04c-42.59-11.4-88.6,7.28-88.6,7.28
		c24.73-86.54,101.15-115.39,101.15-115.39l-4.3-20.87c-124.58,57.78-135.32,185.71-135.32,185.71
		c28.39-32.97,118.14-51.28,118.14-51.28c-40.3,40.3-54.03,119.97-54.03,119.97c32.97-47.62,129.13-66.85,129.13-66.85
		c-51.28,89.75-53.62,190.49-53.62,190.49c28.81-34.8,94.6-65.94,94.6-65.94c32.28,155.23,79.68,187.51,79.68,187.51
		c6.87-21.29,28.85-66.62,28.85-66.62c38.46,103.71,113.33,126.38,113.33,126.38c1.4-8.38,4.92-17.8,8.05-25.06
		C516.1,1310.32,477.91,1214.7,477.91,1214.7z"/>
	
		<linearGradient id="SVGID_00000044148610347285739470000009080352611095060129_" gradientUnits="userSpaceOnUse" x1="755.5349" y1="635.6869" x2="755.5349" y2="759.4309">
		<stop  offset="0" style="stop-color:#EE3724"/>
		<stop  offset="1" style="stop-color:#EC1C30"/>
	</linearGradient>
	<path style="fill:url(#SVGID_00000044148610347285739470000009080352611095060129_);" d="M671.6,766.87c0,0,42.58-16.24,36.4-55.51
		c0,0,72.12-9.05,108.52,8.12c0,0-2.06,36.4,36.4,47.39c38.46,10.99,16.95-38.41,16.95-38.41l-19.7-19.87l-27.47-22.25l-84.48-6.69
		l-55.64,12.6l-32.47,16.35l-14.92,39.05L671.6,766.87z"/>
	<path class="st6" d="M653.83,499.53L653.83,499.53c2.64-5.45,4.5-8.77,4.5-8.77C506.32,316.3,324.05,286.08,324.05,286.08
		c-87.92,167.59-9.62,386.95-9.62,386.95l-11.3,38.34c53.16-0.33,122.68-13.56,53.72-91.02
		c-102.73-115.39-36.47-293.97-36.47-293.97c-14.65,45.79,10.07,115.39,10.07,115.39c-8.24-61.36,18.32-130.04,18.32-130.04
		C529.19,347.43,653.83,499.53,653.83,499.53z"/>
	<path class="st6" d="M1192.23,325.91c21.98,67.31,19.23,129.13,19.23,129.13c13.74-76.93,0-123.63,0-123.63
		c57.7,149.73-5.4,291.98-5.4,291.98l-11.08,49.63l11.35,1.42c3.55-8.98,7.47-18.37,12-28.46c86.54-192.32,0-343.43,0-343.43
		c-156.6,34.34-296.26,156.6-296.26,156.6C1120.34,321.79,1192.23,325.91,1192.23,325.91z"/>
	
		<linearGradient id="SVGID_00000078763640855147732020000008894424087696369590_" gradientUnits="userSpaceOnUse" x1="1057.6366" y1="1344.108" x2="1245.8785" y2="1072.6051">
		<stop  offset="0.0196" style="stop-color:#F5831F"/>
		<stop  offset="0.514" style="stop-color:#EE3724"/>
		<stop  offset="1" style="stop-color:#EC1C30"/>
	</linearGradient>
	<path style="fill:url(#SVGID_00000078763640855147732020000008894424087696369590_);" d="M1279.1,816.16
		c0,0,57.37,44.82,88.28,105.95c0,0-52.88-17.86-78.98-26.1c0,0,19.24,32.93,21.97,71.93c0,0-31.35-8.43-67.53,0
		c0,0,56.56,51.95,45.56,146.61c0,0-54.25-30.03-119.98-43.62c0,0,14.65,48.66,0,103.09c0,0-11.91,0.22-45.79-15.72
		c0,0-63.43,128.28-199.98,198.33c-0.43,6.61-1.03,11.93-1.03,11.93c107.15-37.09,204.68-196.9,204.68-196.9
		c23.81,11.91,74.18,51.28,74.18,51.28c10.07-54.03-19.23-138.74-19.23-138.74c101.65,34.34,137.37,92.04,137.37,92.04
		c17.86-137.37-59.07-204.68-59.07-204.68c51.07,6.77,92.04,28.85,92.04,28.85c-20.61-63.19-53.43-94.79-53.43-94.79
		c52.35,19.23,100.13,41.21,100.13,41.21C1352.99,859.86,1305.92,827.87,1279.1,816.16z"/>
	<path class="st14" d="M756.26,917.65c82.22,0,148.87-26.33,148.87-58.82H607.39C607.39,891.32,674.04,917.65,756.26,917.65z"/>
	<path class="st2" d="M964.67,563.51c0,0,53.1-181.27,199.4-170.28c0,0-35.72,6.87-53.57,49.45c0,0,25.37,33.66,20.61,86.54
		c0,0,13.74-34.88,13.74-51.1c0,0,19.23,56.59-13.74,123.9c-32.97,67.31-81.74,49.45-81.74,49.45l-82.66-78.78L964.67,563.51z"/>
	<path class="st6" d="M855.31,828.86c-2.18-10.52-10.27-17.02-18.78-21.66c-8.55-4.79-18.1-7.82-27.71-10.27
		c-19.34-4.66-39.41-6.6-59.44-6.56c-20.01,0.17-40.1,1.8-59.43,6.58c-9.61,2.44-19.15,5.48-27.7,10.26
		c-8.52,4.64-16.6,11.13-18.79,21.64c-0.81-5.25,0.7-10.83,3.38-15.71c1.46-2.33,3-4.73,4.93-6.68c1.79-2.17,3.84-3.98,5.93-5.8
		c8.51-7.04,18.34-12.06,28.46-15.81c10.1-3.93,20.65-6.24,31.21-8.19c10.6-1.7,21.32-2.4,32.02-2.53
		c10.7,0.26,21.41,0.9,32.02,2.56c10.56,1.93,21.1,4.27,31.2,8.19c10.12,3.75,19.94,8.78,28.45,15.81c2.08,1.82,4.14,3.63,5.93,5.79
		c1.93,1.95,3.47,4.35,4.93,6.68C854.61,818.04,856.11,823.61,855.31,828.86z"/>
	<path class="st2" d="M862.18,835.45c-2.18-10.52-10.27-17.02-18.78-21.66c-8.55-4.79-18.1-7.82-27.71-10.27
		c-19.34-4.66-39.41-6.6-59.44-6.56c-20.01,0.17-40.1,1.8-59.43,6.58c-9.61,2.44-19.15,5.48-27.7,10.26
		c-8.52,4.64-16.6,11.13-18.79,21.64c-0.81-5.25,0.7-10.83,3.38-15.71c1.46-2.33,3-4.73,4.93-6.68c1.79-2.17,3.84-3.98,5.93-5.8
		c8.51-7.04,18.34-12.06,28.46-15.81c10.1-3.93,20.65-6.24,31.21-8.19c10.6-1.7,21.32-2.4,32.02-2.53
		c10.7,0.26,21.41,0.9,32.02,2.56c10.56,1.93,21.1,4.27,31.2,8.19c10.12,3.75,19.94,8.78,28.45,15.81c2.08,1.82,4.14,3.63,5.93,5.79
		c1.93,1.95,3.47,4.35,4.93,6.68C861.48,824.62,862.98,830.2,862.18,835.45z"/>
	<path class="st2" d="M693.9,594.7c0,0-24.59-108.98-97.86-136.45c0,0,10.69,66.65-16.48,94.33c0,0-48.54-165.76-202.39-168.51
		c0,0,48.54,19.23,59.53,53.12c0,0-15.57,49.45-8.24,91.58c0,0-12.82-40.3-17.4-63.19c0,0-12.82,76.01,2.75,129.13
		c15.57,53.12,81.51,47.62,81.51,47.62l28.39-18.32c0,0,90.66-35.72,87-137.37C610.7,486.64,663.55,511.36,693.9,594.7z"/>
	<path class="st15" d="M1006.64,1184.54c-27.49-82.79-119.85-143.68-229.63-143.68c-114.44,0-209.98,66.16-232.8,154.33
		c45.62,43.58,87.54,65.53,87.54,65.53c-0.69-4.81,0-30.91,0-30.91s48.08,78.3,213.9,60.44
		C918.27,1282.43,970.67,1235.18,1006.64,1184.54z"/>
	<path class="st16" d="M777.01,1066.95c-106.79,0-193.36,70.91-193.36,158.38c0,1.22,0.08,2.42,0.11,3.63
		c27.69,21.12,48,31.76,48,31.76c-0.69-4.81,0-30.91,0-30.91s48.08,78.3,213.9,60.44c51.14-5.51,92.24-30.58,124.65-62.61
		c0.01-0.78,0.07-1.54,0.07-2.32C970.37,1137.85,883.8,1066.95,777.01,1066.95z"/>
	<ellipse class="st2" cx="756.26" cy="857.81" rx="125.87" ry="49.73"/>
	<ellipse class="st17" cx="756.26" cy="839.7" rx="67.52" ry="8.56"/>
	<path class="st18" d="M697.7,1195.47c0,0-64.11-117.22,68.69-97.08c0,0,5.84,48.31,29.88,34.91c24.04-13.39-11.68-13.03-7.21-31.07
		s79.9-19.68,66.28,45.15c-13.61,64.83-33.31,54.26-33.31,54.26L697.7,1195.47z"/>
	<circle class="st2" cx="1288.4" cy="751.37" r="45.56"/>
	<circle class="st2" cx="228.54" cy="751.37" r="45.56"/>
	<circle class="st2" cx="658.33" cy="708.59" r="35.57"/>
	<circle class="st2" cx="862.46" cy="708.59" r="35.57"/>
	<circle class="st2" cx="1071.9" cy="784.41" r="229.31"/>
	<circle class="st17" cx="1071.9" cy="784.41" r="209.58"/>
	<circle class="st2" cx="1071.9" cy="784.41" r="194.01"/>
	<g>
		<path class="st19" d="M915.44,784.41c-1.12-22.24,3.59-44.75,12.72-65.17c9.36-20.31,23.17-38.71,40.64-52.52
			c-15.92,15.47-29.21,33.5-38.17,53.64C921.35,740.36,916.57,762.24,915.44,784.41z"/>
		<path class="st19" d="M1071.9,940.87c-13.85,0.47-27.81-1.02-41.3-4.5c-13.51-3.44-26.48-8.91-38.59-15.85
			c-12-7.14-23.03-15.89-32.63-25.98c-4.85-5-9.2-10.46-13.31-16.06c-3.83-5.8-7.21-11.89-10.82-17.78
			c3.99,5.68,7.72,11.49,11.88,16.98c4.29,5.39,8.77,10.64,13.73,15.4c9.78,9.65,20.61,18.27,32.52,25.11
			c11.8,7.02,24.56,12.37,37.76,16.18C1044.35,938.15,1058.06,940.36,1071.9,940.87z"/>
		<path class="st19" d="M1228.37,784.41c0.48,12.58-0.67,25.28-3.52,37.62c-2.8,12.36-7.34,24.31-13.14,35.59
			c-5.98,11.18-13.23,21.71-21.78,31.06c-8.52,9.37-18.28,17.58-28.9,24.35c10.04-7.59,19.21-16.24,27.34-25.73
			c8.11-9.5,15.24-19.84,20.94-30.94c5.9-11,10.33-22.75,13.52-34.82C1225.99,809.45,1227.86,796.99,1228.37,784.41z"/>
		<path class="st19" d="M1071.9,627.94c14.91-0.47,29.95,1.29,44.4,5.35c14.46,4.01,28.27,10.35,40.96,18.39
			c12.58,8.22,24.05,18.16,33.72,29.64c9.7,11.45,17.59,24.38,23.33,38.16c-6.65-13.35-15.07-25.73-24.9-36.79
			c-9.86-11.04-21.13-20.82-33.61-28.73c-12.37-8.1-25.94-14.3-40.07-18.67C1101.57,630.94,1086.81,628.46,1071.9,627.94z"/>
	</g>
	<circle class="st2" cx="449.02" cy="784.41" r="229.31"/>
	<circle class="st17" cx="449.02" cy="784.41" r="209.58"/>
	<circle class="st2" cx="449.02" cy="784.41" r="194.01"/>
	<path class="st17" d="M1014.83,1006.43c-32.2-0.95-108.96-4.01-169.18-12.58c-78.25-11.13-79.27-82.28-79.27-82.28
		c-19.26,95.86-235.17,83.63-254.15,82.37c4.75,44.46,16.38,112.1,44.44,146.58c0,0-4.12-32.97,6.87-55.86v-43.96l6.41,44.42
		l94.28-5.04l1.88-74.64l8.7,74.64l88.38-2.29l3.21-65.02l5.95,65.02l102.57-4.58v-43.04l7.33,40.75l75.1-1.83v-18.32
		c0,0,26.1,49.45,2.29,87C959.62,1137.77,1019,1091.44,1014.83,1006.43z"/>
	<path class="st17" d="M892.76,1216.53c-111.73,41.21-237.19-1.37-237.19-1.37c-21.98-8.7-35.72-41.67-35.72-41.67
		c-6.98,20.12-10.33,50.77-11.92,72.71c14.53,9.64,23.83,14.52,23.83,14.52c-0.69-4.81,0-30.91,0-30.91s48.08,78.3,213.9,60.44
		c39.49-4.25,72.98-20.18,101.12-41.95c5.62-63.56-21.51-91.3-21.51-91.3C917.03,1193.18,892.76,1216.53,892.76,1216.53z"/>
	<path class="st20" d="M845.66,993.85c-78.25-11.13-79.27-82.28-79.27-82.28c-19.26,95.86-235.17,83.63-254.15,82.37
		c0.69,6.44,1.54,13.41,2.55,20.65l41.68-4.92l5.86,23.99l8.66-24.85c87.23,4.98,192.66-38.64,192.66-38.64l2.75,8.24
		c32.63,36.4,90.59,38.43,90.59,38.43c-16.9-1.75-30.83-11.64-30.83-11.64c40.18,15.8,113.26,11.11,113.26,11.11l5.31,2.17
		l3.12-15.07C915.32,1001.47,878.11,998.46,845.66,993.85z"/>
	<path class="st20" d="M607.93,1246.2c14.53,9.64,23.83,14.52,23.83,14.52c-0.69-4.81,0-30.91,0-30.91s48.08,78.3,213.9,60.44
		c39.49-4.25,72.98-20.18,101.12-41.95c5.62-63.56-21.51-91.3-21.51-91.3s24.73,50.8-5.04,88.82c0,0-15.68,35.73-40.35,4.14
		c0,0,4.57,36.19-37.03,33.69c-41.61-2.5-39.44-22.93-39.44-22.93s-5.61,36.69-42.99,23.06c-37.38-13.64-34.23-31.3-34.23-31.3
		s-7.47,26.79-35.83,11.22c-28.37-15.57-31.19-31.43-31.19-31.43s-9.56,20.44-29.71-15.73c0,0-3.21,41.67-9.62,22.9
		c-6.41-18.77,0-65.94,0-65.94C612.88,1193.61,609.52,1224.26,607.93,1246.2z"/>
	<path class="st20" d="M892.76,1216.53c-1.08,0.4-2.17,0.74-3.25,1.12c-3.31,10.93-7.38,16.28-7.38,16.28
		c43.86-20.15,43.15-76.93,43.15-76.93C917.03,1193.18,892.76,1216.53,892.76,1216.53z"/>
	<path class="st21" d="M892.76,1216.53c-111.73,41.21-237.19-1.37-237.19-1.37c-21.98-8.7-35.72-41.67-35.72-41.67
		c-6.98,20.12-10.33,50.77-11.92,72.71c14.53,9.64,23.83,14.52,23.83,14.52c-0.69-4.81,0-30.91,0-30.91s48.08,78.3,213.9,60.44
		c39.49-4.25,72.98-20.18,101.12-41.95c5.62-63.56-21.51-91.3-21.51-91.3C917.03,1193.18,892.76,1216.53,892.76,1216.53z"/>
	<g>
		<polygon class="st2" points="762,957.82 765.9,1008.82 770.76,957.82 		"/>
		<polygon class="st2" points="559.56,998.63 562.31,1033.66 565.74,998.63 		"/>
		<polygon class="st2" points="938.52,1005.17 941.27,1040.2 944.7,1005.17 		"/>
		<path class="st2" d="M727.32,1285.26l-1.11-32.78l-5.56,31.14C722.81,1284.19,725.05,1284.73,727.32,1285.26z"/>
		<path class="st2" d="M879.89,1249.96l-1.14,33.69c2.28-0.67,4.54-1.38,6.78-2.12L879.89,1249.96z"/>
		<path class="st2" d="M664.01,1259.38l-4.84-27.11l-0.79,23.29C660.16,1256.82,662.03,1258.1,664.01,1259.38z"/>
		<path class="st2" d="M806.82,1292.76l-3.4-32.04l-3.41,32.15C802.24,1292.86,804.53,1292.81,806.82,1292.76z"/>
		<path class="st2" d="M639.09,1302.62c0,0,192.32,93.05,322.36-25.82C961.45,1276.79,838.73,1437.24,639.09,1302.62z"/>
	</g>
	<path class="st2" d="M1088.75,1069.09c-2.83,12.03-6.96,23.71-11.55,35.18c-4.57,11.49-10.02,22.62-15.96,33.5
		c-6.07,10.8-12.84,21.23-20.44,31.04c-7.67,9.75-16.2,18.85-25.76,26.67c3.83-4.88,8.09-9.26,11.59-14.33
		c3.88-4.72,7.3-9.8,10.8-14.79c6.68-10.21,13.2-20.52,19.08-31.22c5.97-10.65,11.47-21.56,16.89-32.54
		c2.71-5.49,5.3-11.05,7.79-16.66C1083.87,1080.39,1086.23,1074.73,1088.75,1069.09z"/>
	<path class="st2" d="M460.51,1118.54l16.88,23.38c5.69,7.7,11.33,15.4,17.3,22.83c5.92,7.46,12.03,14.76,18.45,21.79
		c6.53,6.92,13.23,13.68,20.64,19.91c-8.59-4.47-16.46-10.35-23.63-16.92c-7.18-6.57-13.61-13.89-19.71-21.43
		C478.53,1152.82,468.12,1136.35,460.51,1118.54z"/>
	<path class="st22" d="M869.49,1123.03c0,0-67.54,54.95-138.06,13.74l14.65,56.78l87-16.48l36.4-4.55V1123.03z"/>
	<path class="st23" d="M731.43,1136.77l13.78,53.39c4,1.1,8.67,1.5,14.16,0.88l8.47-1.6c26.35-6.92,41.74-26.33,50.05-41.41
		C793.41,1154.39,762.72,1155.05,731.43,1136.77z"/>
	<path class="st24" d="M656.4,1210.1c0,0,138.91,45.86,232.32,0c0,0,37.78-61.28-19.23-87.07c0,0-62.67,91.15-105.09,31.19
		c-39.07-55.23-68.69-36.68-68.69-36.68s20.61,19.23,8.93,56.47C704.64,1174.01,643.88,1173.56,656.4,1210.1z"/>
	<path class="st22" d="M888.72,1210.1c0,0,21.87-35.54,7.13-63.89c-39.12,94.53-119.89,90.06-137.4,31.76
		c-18.31-60.97-62.73-60.44-62.73-60.44c39.15,26.1,8.93,56.47,8.93,56.47c-64.3,1.37-48.24,36.09-48.24,36.09
		S795.31,1255.96,888.72,1210.1z"/>
	<path class="st20" d="M1014.83,1006.43c-16.01-0.47-43.04-1.47-73.56-3.4v37.17l8.14-24.05l42.95,9.9
		c17.86,67.54-32.74,111.73-32.74,111.73S1019,1091.44,1014.83,1006.43z"/>
	<path class="st2" d="M845.66,993.85c-78.25-11.13-79.27-82.28-79.27-82.28c-19.26,95.86-235.17,83.63-254.15,82.37
		c0.45,4.21,0.98,8.67,1.56,13.25c20.66-0.25,68.47-1.27,116.59-5.41c63.88-5.49,136-41.21,136-41.21s23.35,38.38,87.23,44.6
		c51.24,4.99,131.59,9.04,161.4,10.45c0.01-3.02-0.03-6.07-0.18-9.19C982.64,1005.47,905.88,1002.42,845.66,993.85z"/>
	<path class="st25" d="M806.22,1224.95c-85.06,11.26-144.97-24.84-151.05-28.68c-1.72,7.42,1.23,13.83,1.23,13.83
		s138.91,45.86,232.32,0c0,0,21.87-35.54,7.13-63.89C892.06,1195.41,896.02,1213.07,806.22,1224.95z"/>
	<path class="st25" d="M734.5,1135.69c-18.72-18.36-38.79-18.15-38.79-18.15c10.22,6.81,15.68,13.91,18.22,20.69
		C720.46,1142.92,729.82,1146.82,734.5,1135.69z"/>
	<path class="st2" d="M760.43,1148.76c2.62,3.47,5.39,6.79,8.57,9.68c3,3.05,6.39,5.64,9.89,7.97c7.08,4.49,15.24,7.24,23.48,6.75
		c8.26-0.41,16.11-3.65,23.52-7.73c3.58-2.26,7.05-4.78,10.52-7.3c3.29-2.77,6.5-5.65,9.93-8.38c-2.75,3.36-5.72,6.56-8.61,9.87
		c-3.28,2.89-6.63,5.77-10.15,8.44c-7.35,4.92-15.86,8.62-25.05,9.16c-9.19,0.46-18.33-2.83-25.4-8.25
		C770.03,1163.54,764.24,1156.61,760.43,1148.76z"/>
	<g>
		<path class="st17" d="M885.52,1146.22c-5.51,13.73-13.2,27.46-25.26,36.43C871.86,1173.15,879.39,1159.68,885.52,1146.22
			L885.52,1146.22z"/>
	</g>
	<path class="st2" d="M658.33,705.81c13.11-13.28,29.7-22.41,47.05-28.91c17.45-6.44,36.16-9.76,54.97-9.96
		c9.41-0.39,18.82,0.86,28.13,1.98c9.22,2.06,18.49,3.68,27.19,7.37c17.72,6.09,33.69,16.64,46.78,29.53
		c-18.5-2.95-34.99-7.24-51.95-8.86c-8.3-1.44-16.73-1.57-24.95-2.5l-12.46-0.36c-4.13-0.37-8.29-0.15-12.43-0.06
		c-16.58,0.15-33.26,1.28-50.16,3.48C693.54,699.62,676.54,702.55,658.33,705.81z"/>
	<polygon class="st26" points="541.19,742.88 503.07,704.77 449.02,758.82 394.98,704.77 356.86,742.88 410.91,796.93 
		356.86,850.98 394.98,889.09 449.02,835.05 503.07,889.09 541.19,850.98 487.14,796.93 	"/>
	<polygon class="st27" points="1166.15,742.88 1128.03,704.77 1073.98,758.82 1019.93,704.77 981.82,742.88 1035.87,796.93 
		981.82,850.98 1019.93,889.09 1073.98,835.05 1128.03,889.09 1166.15,850.98 1112.1,796.93 	"/>
	<polygon class="st7" points="1164.07,730.36 1125.95,692.24 1071.9,746.29 1017.86,692.24 979.74,730.36 1033.79,784.41 
		979.74,838.46 1017.86,876.57 1071.9,822.52 1125.95,876.57 1164.07,838.46 1110.02,784.41 	"/>
	
		<linearGradient id="SVGID_00000092439910947329479980000005573151983335051164_" gradientUnits="userSpaceOnUse" x1="1072.9429" y1="684.8455" x2="1072.9429" y2="866.8204">
		<stop  offset="0.014" style="stop-color:#F6AB1D"/>
		<stop  offset="0.4358" style="stop-color:#FAA31B"/>
		<stop  offset="1" style="stop-color:#F05223"/>
	</linearGradient>
	<polygon style="fill:url(#SVGID_00000092439910947329479980000005573151983335051164_);" points="1110.02,784.41 1158.85,735.58 
		1128.03,704.77 1073.98,758.82 1019.93,704.77 987.04,737.66 1033.79,784.41 1028.57,789.63 1035.87,796.93 987.04,845.76 
		1017.86,876.57 1071.9,822.52 1125.95,876.57 1158.85,843.68 1112.1,796.93 1117.32,791.71 	"/>
	<polygon class="st0" points="541.19,730.36 503.07,692.24 449.02,746.29 394.98,692.24 356.86,730.36 410.91,784.41 356.86,838.46 
		394.98,876.57 449.02,822.52 503.07,876.57 541.19,838.46 487.14,784.41 	"/>
	
		<linearGradient id="SVGID_00000173874612187410851240000004225325183237491596_" gradientUnits="userSpaceOnUse" x1="444.9366" y1="684.3509" x2="451.7171" y2="858.3837">
		<stop  offset="0" style="stop-color:#EE3724"/>
		<stop  offset="1" style="stop-color:#EC1C30"/>
	</linearGradient>
	<polygon style="fill:url(#SVGID_00000173874612187410851240000004225325183237491596_);" points="449.02,756.05 394.98,702 
		361.74,735.23 410.91,784.41 406.03,789.28 410.91,794.16 361.74,843.33 394.98,876.57 449.02,822.52 503.07,876.57 536.31,843.33 
		487.14,794.16 492.02,789.28 487.14,784.41 536.31,735.23 503.07,702 	"/>
	<path class="st30" d="M553.5,1086.95c0,0-1.55,20.46-2.64,43.27c-1.41,29.72-2.02,63.42,2.64,61.11c8.24-4.1,5.04-5.59,2.29-18.81
		c-2.75-13.22,4.14-55.35,2.98-67.25c-1.15-11.91,0.13-15.57,0.13-15.57l7.88-9.62l-1.86,74.64l5.52-74.64
		c0,0,2.75,54.49,2.75,50.14c0-4.35,2.29-15.68,2.29-15.68l-2.29-37.67l-13.74-2.29l-5.49,2.75L553.5,1086.95z"/>
	<path class="st30" d="M959.62,1137.77c0,0,3.21-33.66-4.35-39.84c-7.56-6.18-10.82-22.74-10.56-28.54
		c0.26-5.8-3.09-10.61-3.09-10.61l-3.09,2.75c0,0,6.4,25.41,10.89,33.66c4.49,8.24,5.86,10.99,5.86,13.74
		C955.27,1111.67,959.62,1137.77,959.62,1137.77z"/>
	<path class="st30" d="M695.71,1117.54v46.9c0,0-0.76,20.96,1.99,31.04c2.75,10.07,2.29,0.18,2.29-4.03c0-4.21,0.52-6.45,0.03-11.51
		c-0.49-5.06-2.79-10.03-2.1-13.04s0-12.62,0-12.62l1.05-8.04l3.31,10.79c0,0,6.41-2.29,3.21-5.49c-3.21-3.21,0.66-25.33,0.66-25.33
		S701.63,1120.8,695.71,1117.54z"/>
	<path class="st31" d="M552.09,1176.01c0,0-1.37,10.3,3.43,9.84C560.33,1185.39,552.77,1179.67,552.09,1176.01z"/>
	<g>
		<path class="st30" d="M936.58,1044.98c0,0-2.5,18.55-2.01,29.19c0.49,10.65,3.4,21,3.09,24.75c-0.31,3.75-9.47,8.15-7.64,0
			c1.83-8.15,6.96-9.98,3.71-13.65c-3.25-3.66-3.71-15.57-1.88-24.73c1.83-9.16,1.88-19.69,1.88-19.69L936.58,1044.98z"/>
		<path class="st31" d="M935.66,1094.35c0,0,1.09,8.21-2.74,7.84C929.1,1101.83,935.11,1097.27,935.66,1094.35z"/>
	</g>
	<g>
		<path class="st30" d="M675.54,1067.1c0,0,1.55,11.54,1.25,18.16c-0.3,6.62-2.12,13.07-1.92,15.4c0.19,2.33,5.89,5.07,4.75,0
			c-1.14-5.07-4.33-6.21-2.31-8.49c2.02-2.28,2.31-9.69,1.17-15.39c-1.14-5.7-1.17-12.25-1.17-12.25L675.54,1067.1z"/>
		<path class="st31" d="M676.11,1097.82c0,0-0.68,5.11,1.7,4.88S676.45,1099.64,676.11,1097.82z"/>
	</g>
	<path class="st20" d="M549.38,1130.12c2.31,3.69,4.71,7.23,7.29,10.4c0,0-4.12-32.97,6.87-55.86
		C563.53,1084.66,549.39,1092.79,549.38,1130.12z"/>
	<polygon class="st20" points="957.33,1069.09 957.33,1050.77 949.41,1066.95 888.18,1069.09 874.91,1030.17 882.23,1070.92 	"/>
	<path class="st20" d="M754.02,980.25c-5.56,3.78-11.5,6.88-17.55,9.67c-6.06,2.81-12.31,5.17-18.64,7.3
		c-12.7,4.01-26.03,6.99-39.49,6.39l19.05-5.58l18.77-5.96C728.67,988.05,741.09,983.79,754.02,980.25z"/>
	<path class="st20" d="M640.35,1010.7c-7.92,3.66-16.39,5.67-24.96,6.86c-8.54,1.02-17.5,1.25-25.87-1.41
		c8.66-0.56,16.93-1.52,25.36-2.62C623.28,1012.5,631.67,1011.26,640.35,1010.7z"/>
	<path class="st7" d="M787.42,944.85c3.39,6.23,8.78,10.66,14.24,14.45c5.44,3.93,11.45,6.83,17.46,9.56
		c12.14,5.24,24.83,8.84,37.62,11.76c12.82,2.86,25.79,4.96,38.82,6.61c13.03,1.79,26.12,2.77,39.24,4.24
		c-6.58,0.13-13.16-0.01-19.75-0.01c-6.59-0.08-13.16-0.77-19.74-1.13c-13.16-1.01-26.25-3.16-39.28-5.74
		c-12.89-3.28-25.81-6.89-38-12.87c-6.01-3.14-12-6.41-17.38-10.79C795.42,956.54,790.1,951.57,787.42,944.85z"/>
	<path class="st7" d="M742.57,931.72c-4.93,6.18-10.85,11.51-17.13,16.34c-6.28,4.86-13.17,8.92-20.36,12.35
		c-7.2,3.43-14.92,5.81-22.76,7.2c-7.85,1.5-15.93,1.37-23.71,0.28c3.94-0.53,7.84-0.26,11.67-1.15c1.92-0.3,3.84-0.49,5.74-0.85
		l5.64-1.34c7.42-2.06,14.77-4.42,21.7-7.83c7-3.23,13.72-7.07,20.28-11.21C730.17,941.3,736.47,936.7,742.57,931.72z"/>
	<g>
		<path class="st0" d="M396.74,636.93c20.59-8.48,43.38-11.57,65.68-9.79c22.27,2.04,44.22,8.9,63.08,20.75
			c-19.9-9.84-41.33-16.34-63.31-18.06C440.24,627.79,418.02,630.59,396.74,636.93z"/>
		<path class="st0" d="M301.55,836.69c-5.07-12.89-8.33-26.55-9.56-40.43c-1.27-13.88-0.45-27.94,2.05-41.66
			c2.72-13.69,7.28-27.02,13.59-39.44c3.1-6.24,6.78-12.17,10.69-17.91c4.18-5.55,8.79-10.77,13.14-16.13
			c-4.02,5.66-8.25,11.12-12.04,16.87c-3.65,5.84-7.1,11.82-9.93,18.09c-5.83,12.44-10.33,25.53-12.8,39.04
			c-2.68,13.47-3.45,27.28-2.64,40.99C294.91,809.81,297.41,823.47,301.55,836.69z"/>
		<path class="st0" d="M501.31,931.88c-11.7,4.65-24.05,7.81-36.64,9.25c-12.58,1.49-25.36,1.2-37.93-0.49
			c-12.54-1.9-24.88-5.22-36.55-10.15c-11.68-4.9-22.68-11.36-32.6-19.11c10.51,6.93,21.73,12.68,33.38,17.17
			c11.67,4.47,23.79,7.74,36.16,9.4c12.33,1.88,24.89,2.13,37.34,1.11C476.91,938.01,489.28,935.6,501.31,931.88z"/>
		<path class="st0" d="M596.5,732.13c5.42,13.9,8.79,28.66,9.79,43.64c1.05,14.97-0.31,30.1-3.65,44.75
			c-3.54,14.6-9.08,28.74-16.67,41.69c-7.56,12.97-17.1,24.73-28.17,34.74c10.36-10.72,19.22-22.8,26.36-35.77
			c7.11-12.98,12.57-26.87,15.85-41.28c3.5-14.36,4.81-29.22,4.21-44.01C603.59,761.09,600.99,746.35,596.5,732.13z"/>
	</g>
	
		<linearGradient id="SVGID_00000049905816333399181020000009887716370554448317_" gradientUnits="userSpaceOnUse" x1="820.4171" y1="313.8052" x2="815.3318" y2="652.8301">
		<stop  offset="0" style="stop-color:#EE3724"/>
		<stop  offset="1" style="stop-color:#EC1C30"/>
	</linearGradient>
	<path style="fill:url(#SVGID_00000049905816333399181020000009887716370554448317_);" d="M859.47,419.77
		c-13.25-26.01-19.82-43.03-19.82-43.03c-5.49,51.28-62.27,97.08-62.27,97.08S830.66,468.11,859.47,419.77z"/>
	
		<linearGradient id="SVGID_00000135687369565968823960000007088961281811049114_" gradientUnits="userSpaceOnUse" x1="748.588" y1="312.7278" x2="743.5026" y2="651.7526">
		<stop  offset="0" style="stop-color:#EE3724"/>
		<stop  offset="1" style="stop-color:#EC1C30"/>
	</linearGradient>
	<path style="fill:url(#SVGID_00000135687369565968823960000007088961281811049114_);" d="M826.9,353.85
		c-65.97,23.79-126.02,97-160.03,145.42c25.53-34.18,69.75-73.99,69.75-73.99c-11.46,20.51-21.52,69.6-21.52,69.6
		C732.5,408.79,826.9,353.85,826.9,353.85z"/>
	<path class="st31" d="M698.04,1119.74c0,0,2.33-0.86,0,7.04c-2.33,7.9,0.69,11.85,0.52,13.74s1.79,4.12,2.44,1.72
		c0.65-2.4,2.71-0.34,0.82-6.53C699.93,1129.53,701.99,1122.83,698.04,1119.74z"/>
	<path class="st7" d="M693.9,673.02c7.99-7.71,17.91-13.27,28.33-17.27c10.44-4.02,21.59-6.48,32.87-6.93
		c11.25-0.53,22.65,0.54,33.4,3.76c10.85,2.79,20.94,7.97,29.93,14.28c-5.55-0.87-10.64-2.56-15.94-3.43
		c-5.29-0.92-10.42-2.09-15.68-2.56c-10.39-1.53-20.82-1.65-31.16-1.23c-10.36,0.43-20.7,1.86-30.96,4.17
		C714.4,666.12,704.22,669.16,693.9,673.02z"/>
	<g>
		<path class="st8" d="M1254.91,1030.97c0.32,0.89,0.59,1.79,0.9,2.69h11.3c-0.59-2.1-1.21-4.18-1.95-6.22
			c-0.16-0.47-0.37-0.93-0.54-1.4h-11.55C1253.67,1027.69,1254.33,1029.32,1254.91,1030.97z"/>
		<path class="st8" d="M1270.71,1057.27c-0.08-2.24-0.26-4.49-0.48-6.73h-9.61c0.6,2.53,1.16,5.07,1.68,7.63
			c0.46,2.11,0.83,4.23,1.16,6.36h7.21C1270.82,1062.12,1270.84,1059.69,1270.71,1057.27z"/>
		<path class="st8" d="M1249.26,1016.15h11.22c-2.57-5.45-5.5-10.72-8.85-15.68c-5.63-8.29-12.21-16-20.25-22.05
			c4.57,8.89,8.88,17.51,12.92,26.19C1246.06,1008.44,1247.69,1012.29,1249.26,1016.15z"/>
		<path class="st8" d="M1264.71,1074.58c0.41,4.04,0.77,8.14,1.21,12.36c1.45-3.98,2.57-8.14,3.41-12.36H1264.71z"/>
	</g>
	<g>
		<path class="st8" d="M438.54,1205.41l-1.31-3.08h-10.5c1.4,2.4,2.84,4.78,4.37,7.1c0.25,0.39,0.53,0.75,0.78,1.14h8.88
			C440.02,1208.86,439.26,1207.14,438.54,1205.41z"/>
		<path class="st8" d="M428.16,1180.99h-11.56c0.53,1.36,0.96,2.76,1.53,4.11c1.39,3.37,2.95,6.66,4.61,9.91h11.37L428.16,1180.99z"
			/>
		<path class="st8" d="M413.47,1172.57h11.11l-6.92-16.26c-3.51-8.25-7.07-16.49-11.19-24.81c-0.26,9.32,1.12,18.48,3.18,27.42
			C410.71,1163.53,412,1168.08,413.47,1172.57z"/>
		<path class="st8" d="M438.54,1219.57c3.22,3.88,6.71,7.55,10.48,10.92c-1.39-3.76-2.91-7.35-4.43-10.92H438.54z"/>
	</g>
	<g>
		<path class="st6" d="M492.13,396.55c-7.07-4.67-14.46-8.83-22.09-12.46l-11.94,5.12c7.45,3.74,14.69,7.83,21.69,12.26l12.81-4.6
			C492.44,396.77,492.29,396.66,492.13,396.55z"/>
		<path class="st6" d="M442.55,373.93c-12.39-3.42-25.13-5.57-37.91-5.43c9.77,2.83,19.24,6.1,28.51,9.71L442.55,373.93z"/>
		<path class="st6" d="M510.7,410.87c-1.5-1.22-2.98-2.45-4.48-3.68l-11.39,4.42c3.07,2.32,6.07,4.73,9.17,7.03
			c5.47,4.94,11.31,9.58,16.35,15.04c10.83,10.3,19.58,22.42,29,34.64c-5.4-14.29-12.56-28.4-22.69-40.28
			C522.1,421.62,516.1,416.55,510.7,410.87z"/>
	</g>
	<g>
		<path class="st6" d="M1045.45,419.14c0.19-0.14,0.39-0.28,0.58-0.42c3.18-2.22,6.25-4.6,9.5-6.7
			c12.92-8.57,26.91-15.36,41.52-20.74c14.67-5.25,30.01-9.01,46.05-10.41c-15.92-3.1-32.62-1.63-48.49,2.35
			c-15.94,3.97-31.18,10.81-45.03,19.75c-3.66,2.56-7.24,5.23-10.75,8L1045.45,419.14z"/>
		<path class="st6" d="M1021.87,426.19c-3.01,3.13-5.88,6.38-8.56,9.8c-1.3,1.57-2.66,3.09-3.91,4.7l-3.47,5.04l-1.75,2.62
			l4.85,4.52l2.43-2.68l3.89-4.42c1.37-1.41,2.83-2.73,4.23-4.1c2.85-2.7,5.66-5.41,8.39-8.19c0.16-0.15,0.33-0.28,0.5-0.43
			L1021.87,426.19z"/>
		<path class="st6" d="M997.74,458.55c-3.44,6.2-6.58,12.56-9.51,18.93c4.63-5.19,8.76-10.59,13.07-15.82L997.74,458.55z"/>
	</g>
	<g>
		<path class="st2" d="M415.32,1094.05c1.62-1.94,3.58-4.09,5.91-6.42l-5.3-10.45c-1.54,3.19-2.79,6.03-3.76,8.37
			C413.18,1088.27,414.24,1091.14,415.32,1094.05z"/>
		<polygon class="st2" points="1116.29,1060.66 1115.36,1063.58 1124.4,1066.04 		"/>
		<polygon class="st2" points="1109.61,1062.01 1111.05,1057.19 1104.39,1052.77 1101.84,1059.9 		"/>
		<path class="st2" d="M1100.67,1050.31l-69.01-45.76l-0.66-0.43l-0.79-0.02c-1.06-0.02-106.98-1.95-184.17-12.94
			c-74.96-10.66-76.9-76.83-76.95-79.64l-0.41-25.14l-4.95,24.65c-19.44,96.8-250.3,80.3-252.65,80.11l-0.56-0.04l-0.53,0.18
			c-48.92,16.74-76.16,52.89-89.61,77.28l3.33,5.22c12.37-23.39,38.71-60.3,87.52-77.2c15.06,1.09,219.1,14.3,254.15-72.27
			c4.51,21.57,20.85,63.81,79.89,72.21c73.97,10.52,174.12,12.77,184.04,12.97l64.07,42.48l-23.39-6.37l-0.71,2.62
			c-0.6,2.22-61.83,221.87-223.93,239.33c-161.87,17.47-210.82-58.4-211.3-59.18l-4.78-7.72l-0.24,9.07
			c-0.06,2.13-0.44,17.49-0.26,26.21c-22.69-13.09-130.7-80.35-175.83-198.82l-1.33-3.5l-2.91,2.37
			c-0.77,0.62-12.58,10.24-23.44,20.25l2.97,4.66c7.94-7.34,16.62-14.69,21.02-18.34c51.97,131.73,179.94,199.87,181.24,200.55
			l4.68,2.44l-0.74-5.23c-0.39-2.76-0.3-13.99-0.14-22.62c13.82,16.45,59.05,57.93,163.51,57.93c14.82,0,30.85-0.84,48.14-2.7
			c155.99-16.8,220.29-215.49,227.82-240.69l23.96,6.52L1100.67,1050.31z"/>
		<path class="st2" d="M409.41,1092.93c-0.01,0.03-0.03,0.09-0.03,0.1l-4.27,14.15l6.47-8.42L409.41,1092.93z"/>
	</g>
	<g>
		<circle class="st6" cx="868.61" cy="579.6" r="17.13"/>
		<circle class="st6" cx="855.22" cy="552.91" r="9.51"/>
		<circle class="st6" cx="832.76" cy="572.61" r="7.45"/>
	</g>
	<polygon class="st0" points="1377.33,167.88 1464.92,167.88 1455.86,202.61 1355.49,195.06 	"/>
	<polygon class="st0" points="1016.34,133.66 994.77,222.35 851.47,236.83 826.9,167.88 	"/>
</g>
</svg>
