<?xml version="1.0" encoding="utf-8"?>
<!-- Generator: Adobe Illustrator 26.3.1, SVG Export Plug-In . SVG Version: 6.00 Build 0)  -->
<svg version="1.1" id="Layer_1" xmlns="http://www.w3.org/2000/svg" xmlns:xlink="http://www.w3.org/1999/xlink" x="0px" y="0px"
	 viewBox="0 0 1500 1500" style="enable-background:new 0 0 1500 1500;" xml:space="preserve">
<style type="text/css">
	.st0{fill-rule:evenodd;clip-rule:evenodd;fill:#DE2A26;}
	.st1{fill-rule:evenodd;clip-rule:evenodd;fill:#F1978C;}
	.st2{fill-rule:evenodd;clip-rule:evenodd;fill:#992520;}
	.st3{fill-rule:evenodd;clip-rule:evenodd;fill:#955B28;}
	.st4{fill-rule:evenodd;clip-rule:evenodd;fill:#CE9869;}
	.st5{fill-rule:evenodd;clip-rule:evenodd;fill:#834D20;}
	.st6{fill-rule:evenodd;clip-rule:evenodd;fill:#ECBA58;}
	.st7{fill-rule:evenodd;clip-rule:evenodd;fill:#F6DBA4;}
	.st8{fill-rule:evenodd;clip-rule:evenodd;fill:#18B24B;}
	.st9{fill-rule:evenodd;clip-rule:evenodd;fill:#9ACE81;}
	.st10{fill-rule:evenodd;clip-rule:evenodd;fill:#198742;}
	.st11{fill-rule:evenodd;clip-rule:evenodd;fill:#A4722A;}
	.st12{fill:#4E2510;}
	.st13{fill-rule:evenodd;clip-rule:evenodd;fill:#EBBB5A;}
	.st14{fill:#010101;}
	.st15{fill:#F5831F;}
	.st16{fill:url(#SVGID_1_);}
	.st17{fill:url(#SVGID_00000040553847150052251600000015071772191185749398_);}
	.st18{fill:url(#SVGID_00000041996017886069680500000016095574105482601131_);}
	.st19{fill:#FEDF8A;}
	.st20{fill:#F6C169;}
	.st21{fill:#FCD660;}
	.st22{fill:url(#SVGID_00000059277751025293193700000001358802074090587520_);}
	.st23{fill:url(#SVGID_00000054249213123550437870000014366440495341651085_);}
	.st24{fill:url(#SVGID_00000156587267735792912340000010986762036565136038_);}
	.st25{fill:url(#SVGID_00000123439662220306381280000000928492178348801691_);}
	.st26{fill:url(#SVGID_00000085964740203993285750000004114539084531397031_);}
	.st27{fill:#EC1C30;}
	.st28{fill:#260F14;}
	.st29{fill:#361317;}
	.st30{fill:#FFFFFF;}
	.st31{fill:#180B0E;}
	.st32{fill:#F05223;}
	.st33{fill:#BDBEC0;}
	.st34{fill:none;stroke:#260F14;stroke-miterlimit:10;}
	.st35{fill:#BE202E;}
	.st36{fill:#77111A;}
	.st37{fill:#EF4237;}
	.st38{fill:#9F1C29;}
	.st39{fill:#AA1F26;}
	.st40{fill:#8E5B24;}
	.st41{fill:url(#SVGID_00000030447271968488476830000017578906992917343108_);}
	.st42{fill:#FAA31B;}
	.st43{fill:url(#SVGID_00000148638246981332147710000018029466972536986027_);}
	.st44{opacity:0.11;fill:#FFFFFF;}
	.st45{opacity:0.3;fill:#FFFFFF;}
	.st46{fill:url(#SVGID_00000056392657538747939480000017873783172342987691_);}
	.st47{fill:url(#SVGID_00000032645933489123185310000015055516950202715816_);}
	.st48{fill:#834D20;}
	.st49{fill:#DC4D26;}
</style>
<g>
	<path class="st0" d="M769.49,338.39c-29.28-6.14-58.91-10.75-88.71-13.47l-1.47-0.14l-0.71-1.29
		c-10.16-18.48-27.85-23.93-46.72-29.65c-9.38-2.85-20.21-5.99-28.24-11.83l-2.76-2.08l-4.31-3.23l-0.1-1.25
		c-0.72-8.63-4.37-14.39-8.96-21.34c-7.74-11.72-9.34-19.92-6.04-33.98l0.55-2.34l2.4,0.22c45.42,4.11,97.39,14.27,135.77,40.32
		c27.57,18.72,45.45,44.15,52.56,76.75l0.91,4.19L769.49,338.39z M1236.34,672.06c0.2-1.19,0.4-2.43,0.71-3.6
		c2.31-8.55,3.23-16.71,1.4-25.44c-1.65-7.92-5.34-15.16-9.18-22.22c-1.09-2.02-0.39-7.27-0.13-9.54
		c0.83-7.27,2.78-15.48,5.14-22.39c5.7-16.68,2.48-29.63-9.56-41.98l-4.05-4.16l5.78-0.54c17.8-1.66,35.41-0.14,52.6,4.74
		c26.44,7.5,49.86,22.26,70.32,40.35l0.28,0.25l0.2,0.31c0.62,0.95,1.17,1.78,0.79,3.06c-0.56,1.89-2.97,3.36-4.57,4.32l-0.15,0.08
		c-26.59,13.85-51.83,30.3-74.63,49.81c-10.65,9.12-20.75,18.88-30.16,29.27l-6.35,7.01L1236.34,672.06z"/>
	<path class="st1" d="M729.88,288.28c8.58,5.45,17.53,15.69,26.85,30.76c-13.49-47.68-65.44-77.39-155.86-89.13
		c26.22,4.49,54.49,13.34,84.81,26.54C692.54,270.41,707.27,281.02,729.88,288.28 M1224.95,547.12l-0.22-0.23l-4.05-4.16l5.78-0.54
		c17.8-1.66,35.41-0.14,52.6,4.74c26.44,7.5,49.86,22.26,70.32,40.35l0.28,0.25l0.2,0.31c0.62,0.95,1.17,1.78,0.79,3.06
		c-0.56,1.89-2.97,3.36-4.57,4.32l-0.15,0.08c-1.36,0.71-2.73,1.43-4.09,2.16c-9.31-3.83-14.66-10.99-16.08-21.49
		C1299.54,555.56,1265.93,545.94,1224.95,547.12z"/>
	<path class="st2" d="M1236.34,672.06c0.2-1.19,0.4-2.43,0.71-3.6c2.31-8.55,3.23-16.71,1.4-25.44c-1.65-7.92-5.34-15.16-9.18-22.22
		c-1.09-2.02-0.39-7.27-0.13-9.54c0.83-7.27,2.78-15.48,5.14-22.39c2.78-8.13,3.43-15.36,1.99-22.08c2.09-0.45,4.11-0.8,5.55-0.88
		c8.34-0.42,13.43-2.04,22.87,0.6c8.07,2.25,11.58,1.28,21.58,4.7c3.57,1.22,25.34,8.09,26.93,10.65
		c-0.14,0.02-32.41-4.63-35.66-5.1c-5.21-0.75-25.27,0.63-29.74,3.87l-0.51,0.31c-4.12,4.65-0.16,6.67-4.03,10.49
		c-0.03,0.03-4.8,10.2-2.27,8.37c4.39-3.15,9.25-6.47,14.59-6.87c7.56-0.56,15.16,0.97,22.17,4.22c0.35,0.16,6.21,5.52-1.54,5.62
		c-5.66,0.08-22.84-1.88-26.03,1.24c-1.05,1.02-11.11-1.08-7.83,2.73c3.23,3.74,3.7,2.9,9.31,4.82c2.1,0.72,16.64,9.41,13.84,10.51
		c-2.99,1.17-7.62,3.26-10.55,2.26c-0.12-0.04-16.96-10.02-13.96-4.22c1.96,3.78,5.71,4.03,8.52,13.23c1.23,4.06,1.48,2.01,2.71,8.4
		c0.69,3.61,1.4,12.39,2.81,18.23c-4.78,4.66-9.41,9.47-13.89,14.41l-6.35,7.01L1236.34,672.06z"/>
	<path class="st2" d="M666.2,308.89c5.53-0.04,11.06-1.44,17.75-1.19c4.82,0.19,7.58-0.28,9.84,5.54c1.39,3.58-6.38,6.84-9.64,7.37
		c-0.71,0.12-3.57,0.76-6.34,1.5C674.58,316.65,670.64,312.36,666.2,308.89 M641.61,296.88c1.4-0.49,3.15-1.32,5.31-2.57
		c6.23-3.6,11.92-15.56,23.89-8.5c4,2.36-1.74,8.1-4.78,9.79c-1.39,0.77-6.1,4.7-8.2,7.91
		C652.78,300.84,647.31,298.76,641.61,296.88z M622.88,291.04c1.8-4.33,2.38-10.53,7.17-17.08c5.51-7.55,17.3-3.26,15.93,0.75
		c-0.67,1.95-4.56,11.12-6.7,11.81c-0.05,0.01-3.11,5.52-2.84,8.72c-1.51-0.47-3.02-0.93-4.55-1.39
		C628.98,292.96,625.93,292.05,622.88,291.04z M741.04,332.94c-17.97-41.73-56.71-68.42-116.24-80.06
		c52.72,19.68,86.15,45.5,100.28,77.47C730.42,331.16,735.73,332.02,741.04,332.94z"/>
	<path class="st3" d="M790.48,330.18c2.76-1.58,5.43-3.27,8.1-4.99c2.07-1.34,4.16-2.7,6.48-3.6c8.86-3.47,22.08,1.96,30.37,5.11
		c14.88,5.66,36.1,1.3,51.37-1.35c11.48-1.99,22.96-3.96,34.6-4.61c29.7-1.63,54.3,6.08,72.27,31.45c2.58,3.65,3.85,7.27,5.15,11.47
		c0.47,1.5,0.92,2.99,1.44,4.46c2.05,5.91,4.58,10.24,9.21,14.53c7.51,6.97,18.73,12.14,28.13,15.92
		c14.01,5.64,22.01,18.91,26.02,32.89c3.08,10.75,4.05,22.4,3.39,33.57l0,0.08c-0.01,0.14-0.02,0.27-0.03,0.48
		c-0.15,2.34-0.38,4.68-0.69,7.01l-0.64,4.88l-3.84-3.06c-77.59-61.85-172.57-107.87-269.11-130.83l-1.82-0.43l-0.28-1.85
		c-0.42-2.73-0.91-5.45-1.46-8.15l-0.41-1.97L790.48,330.18z M470.92,341.03c-9.52-3.27-19.04-6.66-28.38-10.43
		c-6.11-2.46-20.06-7.96-24.69-12.35l-2.21-2.1l2.3-2.01c0.95-0.83,1.9-1.67,2.85-2.52c4.37-3.89,13.24-12.25,19.17-12.66
		c6.72-0.47,13.39-0.62,20.12-0.68c6.06-0.05,12.42-0.01,18.4-1.06c13.8-2.44,27.28-12.65,38.15-20.92
		c22.99-17.51,46.79-3.48,66.86,11.16l0.13,0.1c2.49,1.8,4.94,3.67,7.41,5.51l2.91,2.17c9.82,7.3,21.59,10.78,33.13,14.28
		c7.27,2.2,14.79,4.44,21.56,7.9l11.31,5.78l-12.69-0.54c-58.93-2.48-117.68,2.99-174.69,18.42l-0.82,0.23L470.92,341.03z
		 M1259.89,975.1c5.78-87.57-0.91-176.54-28.71-260.2l-0.45-1.34l0.82-1.15c3.4-4.77,6.94-9.43,10.62-13.98l1.35-1.67l1.96,0.88
		c2.4,1.08,4.83,2.11,7.26,3.13c5.6,2.36,11.43,4.77,16.14,8.7c8.76,7.3,10.82,17.82,10.76,28.73c-0.02,3.17-0.14,6.34-0.27,9.5
		c-0.23,5.68-0.67,12.2,0.63,17.76c2.59,11.12,14.5,21.29,22.75,28.38c13.58,11.67,19.71,28.16,19.9,45.78
		c0.21,20.54-7.46,42.06-19.86,58.34c-3.93,5.16-8.11,9.78-12.57,14.47c-2.87,3.01-5.81,6.05-8.31,9.38
		c-8.66,11.51-10.63,28.17-12.12,42.06c-0.45,4.25-2.63,9.06-4.7,12.77l-6,10.77L1259.89,975.1z"/>
	<path class="st4" d="M882.98,326.01l0.82,0.13c9.74,1.53,21.51,2.44,31.33,2.03c4.98-0.21,34.57,10.86,37.05,14.59
		c2.2,3.32,12.39,8.93,17.34,18.64c2.11,4.13,6.16,10.72,4.45,0.83c-1.28-7.4,0.99-15.39-7.06-20.1
		c-0.06-0.04,10.89,1.25,15.54,9.47c7.16,12.65,0.44,13.65,15.53,27.34c0.65,0.59,5.88,7.6,3.79,6.89c-1.61-0.55-7.25-2.5-8.63-1.97
		c4.86,1.67,10.33,3.96,18.35,9.82c21.01,15.35,36.07,12.04,38.6,45.28c0.91,11.96,8.06,16.5,17.04,23.76
		c0.41-10.46-0.63-21.26-3.5-31.27c-4.01-13.98-12.02-27.24-26.02-32.89c-9.39-3.79-20.62-8.95-28.13-15.92
		c-4.63-4.29-7.16-8.62-9.21-14.53c-0.51-1.48-0.97-2.97-1.44-4.46c-1.3-4.2-2.57-7.82-5.15-11.47
		c-17.97-25.37-42.56-33.09-72.27-31.45c-11.64,0.64-23.13,2.61-34.6,4.61L882.98,326.01z M790.58,341.15
		c2.18-2.4,5.14-4.94,7.21-5.39c18.06-3.98,15.4-0.78,32.12,0.18c3.81,0.22,31.8,11.69,31.24,10.55
		c-2.08-4.23-9.24-13.45-13.63-14.78c-0.57-0.17-2.11-1.69-3.35-2.83c-3.07-0.44-6.01-1.13-8.73-2.17
		c-8.29-3.15-21.51-8.58-30.37-5.11c-2.31,0.9-4.4,2.27-6.48,3.6c-2.67,1.72-5.34,3.42-8.1,4.99l-1.75,1l0.41,1.97
		C789.69,335.81,790.17,338.47,790.58,341.15z M586.81,289.93c1.4,1.63,2.5,3.25,2.47,4.28c-3.82-0.38-11.66-3.81-17.44-2.8
		c-10.16,1.77-9.42-0.07,2.75,4.09c16.03,5.48,14.68,8.89,28.54,16.34c7.04,3.78,12.23,7.37,17.58,10.26
		c8.83,0.01,17.67,0.2,26.52,0.58l12.69,0.54l-11.31-5.78c-6.78-3.47-14.3-5.7-21.56-7.9c-11.54-3.5-23.3-6.98-33.13-14.28
		l-2.91-2.17C589.61,292.03,588.22,290.98,586.81,289.93z M422.09,321.27c3-3.47,5.49-7.03,10-9.94c7.53-4.87,17.73-0.77,25.81-0.83
		c1.71-0.01,16-0.39,16.06-0.37c0.23-0.4,0.21,0.59-4.15,4.08c-3,2.4-4.35,4.62,0.97,1.14c4.36-2.85,14.75-1.71,23.59-6.8
		c7.45-4.3,16.57-14.76,23.85-16.7c6.25-1.67,14.91-5.17,21.45-2.94c1.96-1.19-13.68-6.86-15.63-7.52c1.3-3.57,11.33-8.29,16.2-8.6
		c8.1-0.52,16.11-0.03,23.58,2.14c-15.12-7.77-31.35-10.68-47.2,1.39c-10.87,8.28-24.36,18.49-38.15,20.92
		c-5.98,1.05-12.34,1.01-18.4,1.06c-6.74,0.06-13.4,0.2-20.12,0.68c-5.93,0.41-14.79,8.77-19.17,12.66
		c-0.95,0.84-1.9,1.68-2.85,2.52l-2.3,2.01l2.21,2.1C418.87,319.22,420.34,320.24,422.09,321.27z M1293.26,785.32
		c3.24,3.16,6.59,6.02,9.48,8.51c13.58,11.67,19.71,28.16,19.9,45.78c0.21,20.54-7.46,42.06-19.86,58.34
		c-3.93,5.16-8.11,9.78-12.57,14.47c-2.87,3.01-5.81,6.05-8.31,9.38c-2.81,3.74-4.92,8.02-6.53,12.57
		c-5.57-8.42-5.19-5.92,1.93-17.07c3.82-5.98,4.49-8.14,7.34-14.5c4.28-9.59,0.85-3.59,4.39-5.59c10.21-5.75,7.69-17.08,11.87-20.49
		c9.85-8.02,11.91-20.69,15.82-32.18c0.18-0.42,0.17-1.18-0.11-1.56c-4.49-5.94-1.35,0.88-6.3,7.03
		c-10.64,13.21-17.4-7.07-17.48-7.12c0-2.27,5.15-9.48,5.27-19.35c0.16-13.38,8.23-1.27,9.86-10.88
		c0.44-2.58-11.57-18.86-12.16-19.31C1295.88,790.57,1294.89,787.8,1293.26,785.32z M1238.02,703.69c1.36-1.77,2.74-3.52,4.15-5.26
		l1.35-1.67l1.96,0.88c2.4,1.08,4.83,2.11,7.26,3.13c5.6,2.36,11.43,4.77,16.14,8.7c8.76,7.3,10.82,17.82,10.76,28.73
		c-0.02,3.17-0.14,6.34-0.27,9.5c-0.23,5.68-0.67,12.2,0.63,17.76c1.18,5.04,4.26,9.88,8.06,14.34c-1.56-1.18-3.21-2.12-4.82-2.74
		c-10.01-3.84-13.58-18.04-14.86-27.7c-2.35-17.68-1.21-13.18-11.87-28.46C1253.46,716.56,1244.51,708.87,1238.02,703.69z"/>
	<path class="st5" d="M804.4,346.49c1.99-2.78,5.93-5.89,10.83-4.21c7.36,2.51,10.05,3.81,17.79,4.18
		c15.95,0.75,37.42,8.67,52.45,14.48c0.82,0.31-4.62-15.41-15.97-19.29c11.4-8.43,31.86-7.85,45.13-5.89
		c6.07,0.89,14.78,7.43,22.36,10.02c14.1,4.82,8.61,7.24,19.38,13.23c2.07,1.15,7.75,4.26,8.65,6.28
		c-3.5-0.46-13.07-3.04-16.27-2.38c-0.1,0.02-7.2,0.35-8.03,0.39c16.83,4.5,24.48,3.27,38.74,14.93c7.04,5.76,3.16-0.43,7.83,8.98
		c1.74,3.51,6.51,5.69,8.59,15.04c0.42,1.87,2.6,8.3,1.9,9.89c3.62-5.01,4.26-8.2,6.13-13.68c3.15,1.79,6.4,8.03,15.43,12.36
		c10.72,5.15,19.49,17.78,18.24,30.16c-0.36,3.59,0.27,4.11-0.55,9.41c-0.22,1.44-0.49,3.05-0.68,4.71
		C967.16,405.34,886.58,367.63,804.4,346.49 M446.68,332.25c4.19-6.74,8.48-14.7,28.35-7.91c12.85,4.39,25.11-7.77,33.75-13.58
		c15.12-10.17,36.06-11.96,38.97-13.98c1.95-1.36,5.76-7.63,11.81,1.29c0.91,1.34-8.64,16.65,11.17,8.98
		c8.11-3.14,13.94,6.79,22.32,15.65c-40.66,1.79-81,7.7-120.5,18.39l-0.82,0.23l-0.81-0.28
		C462.81,338.24,454.69,335.37,446.68,332.25z M1261.77,911.12c-0.54-60.1-7.9-120.08-24.84-177.81
		c5.41,1.72,10.39,5.07,15.29,10.85c9.91,11.69,8,10.65,5.77,23.89c-2.59,15.31,2.44,25.7,12.71,37.6
		c7.8,9.04,6.62,18.98,7.95,29.18c0.21,1.65,3.37,16.55,3.96,16.88c0.31,4.4,6.73,12.26,2.29,25.28
		C1279.98,891.33,1270.6,895.57,1261.77,911.12z"/>
	<path class="st6" d="M1229.9,1071.69c-36.89,1.95-74.16,0.72-110.97-2.17c-44.64-3.51-89.17-9.56-133.31-17.03
		c-239.52-40.5-467.58-114.5-685.05-222.8c-39.79-19.81-79.08-41-116.94-64.31c-31.14-19.16-61.66-39.96-90-63.09l-1.78-1.46
		l1.09-2.02c6.59-12.15,13.4-24.19,20.52-36.2c0.12-0.19,0.24-0.38,0.39-0.66c69.73-117.56,163.05-222.46,289.9-279
		c22.09-9.84,44.87-18.06,68.14-24.61l0.25-0.07l0.26-0.02c1.02-0.09,2.02-0.37,2.95-0.82l0.24-0.12l0.26-0.07
		c194.59-53.06,432.61,10.19,585.85,138.34l0.49,0.41l0.27,0.59c0.93,2.11,2.69,3.72,4.87,4.46c0.19,0.06,0.39,0.12,0.58,0.17
		l0.63,0.16l0.49,0.43c43.82,37.97,80.76,82.27,109.04,132.92c62.25,111.47,75.12,239.35,63.41,364.66l-0.02,0.15
		c-0.02,0.17-0.04,0.34-0.05,0.44l-0.03,0.51c-1.57,16.64-3.58,33.24-5.96,49.79l-0.02,0.12l-0.03,0.12
		c-0.12,0.49-0.19,0.97-0.22,1.46l0,0.13l-0.02,0.13c-0.84,5.72-1.72,11.44-2.65,17.15l-0.35,2.21L1229.9,1071.69z"/>
	<path class="st7" d="M118.31,654.53c69.24-114.55,161.28-216.25,285.45-271.59c22.09-9.84,44.87-18.06,68.14-24.61l0.25-0.07
		l0.26-0.02c1.02-0.09,2.02-0.37,2.95-0.82l0.24-0.12l0.26-0.07c194.59-53.06,432.61,10.19,585.85,138.34l0.49,0.41l0.27,0.59
		c0.93,2.11,2.69,3.72,4.87,4.46c0.19,0.06,0.39,0.12,0.58,0.17l0.63,0.16l0.49,0.43c5.09,4.41,10.09,8.9,14.99,13.48
		C920.27,408.45,729.33,344,560.23,367.84C400.66,390.34,225.68,526.85,118.31,654.53"/>
	<path class="st8" d="M512.21,259.4c-1.91,1.2-3.75,2.49-5.55,3.86c-9.43,7.18-20.82,15.82-32.81,17.83
		c-4.55,0.76-9.27,0.76-13.88,0.8c-7.09,0.06-14.09,0.23-21.18,0.73c-11.11,0.78-20.97,9.66-28.91,16.72c-1.68,1.49-3.36,3-5.1,4.41
		l-1.57,1.28l-1.7-1.1c-27.93-18.16-52.65-0.76-75.78,15.75c-7.32,5.22-23.22,17.8-32.7,15.07l-2.77-0.79l0.12-2.94
		c0.15-3.65,0.27-7.42,0.83-11.03l0.47-3.02l2.97,0.76c14.42,3.7,18.1-1.82,22.47-14.6l1.42-4.57c0.59-1.87,1.21-3.73,1.84-5.59
		c0.91-2.66,1.94-8.89,4.53-10.15c2.69-1.3,8.47,2.07,11.15,3.11c1.7,0.66,3.46,0.98,5.28,0.88c13.66-0.74,29.68-27.06,36.54-37.32
		c8.96-13.4,27.66-42.3,46.15-26.26c9.73,8.44,20.27,17.6,32.84,21.36c12.53,3.75,27.92,1.67,40.7,0.22
		c3.43-0.39,7.13,1.75,9.72,3.81c2.4,1.91,4.73,4.47,5.97,7.31l0.95,2.18L512.21,259.4z M1214.6,671.51
		c-6.63-15.29-14.02-30.25-22.15-44.81c-28.94-51.83-66.63-97.27-111.38-136.25l-1.28-1.11l0.41-1.65c1.19-4.82,2.04-9.72,2.6-14.65
		l0.2-1.77l1.69-0.55c3.9-1.27,7.99-2,12.06-2.37c11.15-1.01,23.28,0.66,33.76,4.59c8.26,3.1,17.47,8.4,21.69,16.49
		c1.15,2.19,1.87,4.55,2.09,7.02c1.93,21.36,20.7,33.77,36.77,44.89c13.64,9.44,34.33,22.55,27.61,42.2
		c-2.71,7.95-4.93,17.44-5.89,25.8c-0.68,5.92-0.89,13.92,2.04,19.31c2.95,5.43,6.24,11.6,7.51,17.69
		c1.26,6.02,0.43,11.9-1.15,17.77c-0.54,2-0.88,4.05-1.22,6.09l-1.63,9.96L1214.6,671.51z M1322.31,790.43
		c-2.68-3.27-5.64-6.29-8.85-9.05c-6.51-5.59-15.44-13.16-17.29-21.99c-0.75-3.57-0.54-7.35-0.39-10.97
		c0.14-3.38,0.26-6.74,0.27-10.12c0.08-15.34-2.27-30.94-14.9-41.08c-6.41-5.14-14.56-8.47-22.09-11.63l-4.29-1.8l2.75-2.91
		c7.74-8.19,15.92-15.95,24.48-23.27c10.21-8.74,20.96-16.85,32.1-24.36l1.29-0.87l1.41,0.65c1.56,0.71,3.15,1.34,4.75,1.98
		c10.13,4.04,16.67,8.23,23.05,17.45c2.71,3.91,1.73,10.92,0.77,15.28c-1.39,6.31-4.55,14.37-9.39,18.81
		c-18.28,16.78-13.9,33.82-8.15,55.18c2.21,8.21,4.5,16.67,4.92,25.21c0.3,6.09-1.33,12.77-3.63,18.36c-0.65,1.6-1.39,3.17-2.21,4.7
		l-1.96,3.65L1322.31,790.43z M1253.37,1040.24c1.37-10.37,2.6-20.77,3.66-31.18l0.15-1.54l1.4-0.68
		c5.52-2.67,10.39-7.39,14.15-12.17c5.93-7.52,12.35-19.52,13.36-29.04c0.61-5.71,1.36-11.51,2.56-17.14l2.27-10.6l3.11,10.39
		c2.53,8.46,2.35,13.96-1.77,22.11c-7.29,14.4-8.03,23.02-5.32,38.44c1.35,7.69,1.91,13.5-0.44,21.18l-0.05,0.15l-0.06,0.14
		c-1.73,3.97-14.99,8.35-18.94,9.71c-3.49,1.2-7.04,2.32-10.61,3.28l-4.02,1.07L1253.37,1040.24z M398.75,322.71
		c2.32,1.88,4.48,3.95,6.48,6.16c6.03,6.63,22.87,13.66,31.23,17l8.59,3.44l-7.03,2.44c-13.88,4.81-27.55,10.21-40.97,16.2
		C273.98,422.79,181.63,521.6,111.36,634.45l-2.79,4.48l-2.11-4.83c-7.85-17.98,9.21-31.51,22.5-40.51
		c3.76-2.55,7.74-6.01,8.43-10.76c0.93-6.34-4.42-15.58-7.28-21.04c-5.31-10.14-9.37-19.17-11.07-30.67
		c-2.56-17.3,1.4-34.79,8.16-50.71c1.86-4.36,5.91-7.39,9.57-10.19c8.92-6.81,14.96-12.28,19.55-22.89
		c7.74-17.9,7.16-42.92,5.6-61.91c-0.23-2.82-0.04-5.67,0.42-8.46c1.86-11.22,8.2-22.2,15.97-30.37
		c7.69-8.08,18.01-14.72,29.36-15.65c2.63-0.22,5.27-0.11,7.86,0.32c19.15,3.16,38.09,8.92,56.67,14.46l6.67,1.99
		c3.2,0.94,6.39,1.89,9.59,2.82c17.14,4.93,33.76-8.09,46.85-17.44c17.64-12.59,38.09-27.01,59.55-13.19l0.24,0.15l0.2,0.2
		c0.86,0.85,1.83,1.6,2.91,2.13l0.28,0.13L398.75,322.71z"/>
	<path class="st9" d="M1307.36,637.89c1.7,0.77,4.84,1.91,10.74,3.92c11.74,4.01,10.21,7.78,17.02,15.78
		c-0.79,4.28-0.08,4.28-2,8.01c-1.47,2.85,8.58-2.66-2.68,10.99c-5.65,6.85-3.89-0.34-7.25,7.71c-1.95,4.67-12.79,14.53-12.73,15.79
		c0.17,3.91,12.71-3.82,8.58,8.25c-2.47,7.24,1.74,9.02-1.13,16.79c-2.17,2.55-2.97,12.88-1.59,16.12c1.49,3.48,1.13,4.24,4.78,7.41
		c-0.34,3.46-4.03,0.7,1.64,7.26c2.98,3.45-3.4,9.31-3.57,9.78c-2.6,7.18-2.46,11.69-3.45,17.72c2.35,2.19,4.55,4.53,6.58,7.01
		l2.63,3.2l1.96-3.65c0.82-1.53,1.56-3.1,2.21-4.7c2.3-5.6,3.93-12.28,3.63-18.36c-0.42-8.53-2.71-16.99-4.92-25.21
		c-5.74-21.35-10.12-38.4,8.15-55.18c4.84-4.45,8.01-12.5,9.39-18.81c0.96-4.36,1.94-11.38-0.77-15.28
		c-6.39-9.22-12.92-13.41-23.05-17.45c-1.59-0.64-3.19-1.27-4.75-1.98l-1.41-0.65l-1.29,0.87
		C1311.84,634.76,1309.59,636.31,1307.36,637.89 M1082.5,475.43c2.3-0.51,4.8-0.84,7.59-0.78c16.84,0.37,10.81-0.89,28.09,5
		c14.5,4.95,15.47,0.03,25.87,16.53c1.43,2.27,3.05,8.33,1.34,10.47c-0.71,0.89,4.71,6.25,4.74,6.47c0.58,4.91-5.8,9.75-0.11,10.21
		c2.89,0.24,11.93,1.93,12.94,4.21c1.56,3.52,0.46,0.99,1.83,3.17c1.89,3.03-6.35,6.96,8.72,7.67c3.8,0.18,3.66,5.92,11.34,8.18
		c0.93,0.27,4.27,3.88,9.74,5.75c7.95,2.72,8.66,3.2,13.38,10.88c1.96,3.19-7.36,21.98-2.98,16.27c1.51-1.98,8.07-5.42,5.49,2.14
		c-0.36,1.06-1.75,7.22-1,7.9c1.24,1.14-1.11,10.35-1.76,12.27c-0.6,1.76-7.48,18.51-4.24,17.38c3.37-1.18,6.68,6.45,4.93,10.42
		c-0.24,0.55,1.36,5.56,3.91,6.43c2.82,0.96,5.37,2.59,7.63,4.55c-0.03,0.29,1.61,4.64,2.67,7.18c-0.07-0.46-0.16-0.92-0.26-1.38
		c-1.27-6.09-4.56-12.26-7.51-17.69c-2.93-5.39-2.72-13.39-2.04-19.31c0.96-8.36,3.17-17.85,5.89-25.8
		c6.71-19.66-13.97-32.76-27.61-42.2c-16.07-11.12-34.84-23.53-36.77-44.89c-0.22-2.47-0.95-4.83-2.09-7.02
		c-4.22-8.09-13.43-13.39-21.69-16.49c-10.48-3.94-22.62-5.6-33.76-4.59c-4.07,0.37-8.17,1.11-12.06,2.37l-1.69,0.55l-0.2,1.77
		C1082.71,473.83,1082.61,474.63,1082.5,475.43z M290.76,324.18c1.42-0.58,3.16-0.83,5.45-0.39c3.62,0.7,19.5-1.14,20.87-6.67
		c0.51-2.05,4.85-10.59,4.8-14.07c-0.07-5.09,5.54-10.37,10.33-9.94c11.65,1.06,23.24-3.13,33.1-8.54c2.06-2.06,2.86-1.89,5.77-5.61
		c8.31-10.56,8.46-15.7,19.67-25.04c7.52-6.26,13.19-10.7,23.52-11.33c4.01-0.25,5.92,7.04,21.05,5.9
		c0.67-0.05,13.36,1.06,3.06,3.82c-0.41,0.11-12.81,5.3-2.93,3.02c5.73-1.32,29.38,2.92,31.73,2.14c4.86-1.61,25.07-1.25,30.29,1.9
		c3.53,2.13,5.44,3.89,7.12,5.47l2.07-1.57c1.79-1.36,3.64-2.66,5.55-3.86l2.02-1.27l-0.95-2.18c-1.24-2.84-3.57-5.4-5.97-7.31
		c-2.59-2.06-6.29-4.19-9.72-3.81c-12.78,1.45-28.17,3.53-40.7-0.22c-12.57-3.76-23.11-12.93-32.84-21.36
		c-18.49-16.04-37.19,12.86-46.15,26.26c-6.85,10.26-22.87,36.58-36.54,37.32c-1.83,0.1-3.58-0.22-5.28-0.88
		c-2.68-1.05-8.46-4.41-11.15-3.11c-2.59,1.25-3.62,7.49-4.53,10.15c-0.63,1.85-1.26,3.71-1.84,5.59l-1.42,4.57
		c-4.37,12.78-8.05,18.3-22.47,14.6l-2.97-0.76l-0.47,3.02C291.02,321.37,290.87,322.77,290.76,324.18z M398.75,322.71
		c2.32,1.88,4.48,3.95,6.48,6.16c3.78,4.15,11.79,8.46,19.31,11.93c-2.73,0.21-6.89-0.39-13.81-3.09
		c-9.95-3.88-15.21-4.57-22.97-12.21c-3.96-3.9-12.41-4.19-17.45-3.15c-10.79,2.24-17.17,12.87-22.1,14.63
		c-8.1,2.88-13.67,10.08-19.2,16.95c-0.05-0.01-10.99,3.64-11.68,3.89c-15.7,5.72-18.02-1.61-30.84-1.8
		c-29.15-0.43-19.67-4.69-24.85,10.48c-1.9,5.57-17.13-15.03-18.9-17.34c-7.25-9.45-17.89-3.83-22.48-8.73
		c-8.24-8.8,3.16,7.19-18.12,9.82c-14.46,1.78-10.94,5.69-17.07,15.64c-9.43,15.31-5.87,25.26-7.51,29.46
		c-5.73,14.7-8.3,24.57-9.21,40.71c-0.71,12.55-0.46,8.94-4.78,21.59c-3.14,9.21-8.15,9.47-8.25,11.74
		c-0.7,15.24-18.78,7.83-21.4,16.83c-3.34,11.5-4.66,9.39-7.99,19.14c-3.57,10.47-4.18,29.12-1.82,43.84
		c-2.33-5.66-4.08-11.46-5.06-18.08c-2.56-17.3,1.4-34.79,8.16-50.71c1.86-4.36,5.91-7.39,9.57-10.19
		c8.92-6.81,14.96-12.28,19.55-22.89c7.74-17.9,7.16-42.92,5.6-61.91c-0.23-2.82-0.04-5.67,0.42-8.46
		c1.86-11.22,8.2-22.2,15.97-30.37c7.69-8.08,18.01-14.72,29.36-15.65c2.63-0.22,5.27-0.11,7.86,0.32
		c19.15,3.16,38.09,8.92,56.67,14.46l6.67,1.99c3.2,0.94,6.39,1.89,9.59,2.82c17.14,4.93,33.76-8.09,46.85-17.44
		c17.64-12.59,38.09-27.01,59.55-13.19l0.24,0.15l0.2,0.2c0.86,0.85,1.83,1.6,2.91,2.13l0.28,0.13L398.75,322.71z"/>
	<path class="st10" d="M1286.36,653.93c9.7,0.36,18.86,3.28,23.68,12.93c8.3,16.63-6.75,17.28-7.86,32.95
		c-0.47,6.6,0.99,6.81-1.11,14.04c-0.26,0.9,0.32,10.54,1.09,12.84c0.15,0.45,6.2,19.7,2.35,14.16c-3.2-4.58-4.07,7.15-4.07,8.78
		c0,6.44-1.6,9.1-3.52,12.29c-0.31-0.83-0.56-1.68-0.74-2.54c-0.75-3.57-0.54-7.35-0.39-10.97c0.14-3.38,0.26-6.74,0.27-10.12
		c0.08-15.34-2.27-30.94-14.9-41.08c-6.41-5.14-14.56-8.47-22.09-11.63l-4.29-1.8l2.75-2.91c7.74-8.19,15.92-15.95,24.48-23.27
		C1283.44,656.37,1284.9,655.14,1286.36,653.93 M1091.83,500.08c5.76-2,11.74-5.59,27.11-0.34c8.65,2.95,13.21,4.8,14.62,14.15
		c0.7,4.67,1.28,4.66,1.21,10.18c-0.05,4.06,5.21,3.78,3.32,12.07c-0.41,1.81,4.93,13,10.89,12.67c16.84-0.91,5.88,6.9,25.45,7.78
		c7.78,0.36,8.26,7.5,12.58,14.04c6.64,10.06-9.09,18.14-2.03,22.98c6.59,4.51,15.08,2.6,10.21,16.85
		c-1.3,3.79-3.68,7.29-5.85,10.78C1163.24,575.85,1130.34,535.44,1091.83,500.08z M375.61,296.23
		c-0.41-10.25,2.98-16.28,12.77-23.14c4.29-3.01,10.22,4.61,19.13-7.89c7.41-10.39,19.45,5.36,28.29,3.3
		c5.3-1.23,15.5-5.56,20.38-2.6c8.67,5.26,18.53,8.59,28.25,11.83c-3.45,1.57-6.97,2.76-10.56,3.36c-4.55,0.76-9.27,0.76-13.88,0.8
		c-7.09,0.06-14.09,0.23-21.18,0.73c-11.11,0.78-20.97,9.66-28.91,16.72c-1.68,1.49-3.36,3-5.1,4.41l-1.57,1.28l-1.7-1.1
		C392.57,298.11,383.95,295.95,375.61,296.23z M379.01,376.4c-83.98,41.36-153.15,103.52-210.43,176.22
		c-4.57-8.49-11.27-20.96-0.82-24.67c4.32-1.54,15.93-7.28,9.05-13.11c-12.77-10.85-1.71-49.59,14.25-59.83
		c17.13-10.98,5.61-6.68,20.79-0.14c6.68,2.88,0.39-8.06,17.8,2.56c9.2,5.61-21.02-52.9-17.3-63.8c5-14.64,21.58-13.5,31.53-4.12
		c8,7.55,14.14-7.27,22.81,8.63c3.91,7.18,13.67,13.46,18.14,3.33c1.43-3.25,15.53,1.84,21.43-15.88
		c3.01-9.04,34.73-20.17,44.78-26.11C363.12,352.34,369.81,367.08,379.01,376.4z"/>
	<path class="st11" d="M1197.18,1020.08c2.14-348.08-181.29-558.21-550.28-630.4C1011.43,395.87,1253.9,656.51,1197.18,1020.08
		 M504.53,550.68c10.52,4.17,16.54,14.23,13.55,22.99c-3.11,9.1-14.77,13.35-26.05,9.5c-11.28-3.85-17.9-14.35-14.79-23.45
		c0.18-0.54,0.39-1.05,0.64-1.55c-4.21-0.26-8.53-1.1-12.81-2.57c-21.11-7.21-33.52-26.87-27.7-43.91
		c5.82-17.04,27.65-25,48.77-17.79c21.12,7.21,33.52,26.87,27.7,43.91C512.06,543,508.8,547.35,504.53,550.68z M834.54,566.25
		c1.44-0.1,2.86-0.12,4.25-0.05c8.13-13.3,26.75-20.39,46.22-16.32c23.58,4.92,39.48,24.33,35.51,43.36
		c-3.97,19.03-26.3,30.46-49.88,25.54c-8.73-1.82-16.4-5.63-22.41-10.67c-3.17,1.34-6.7,2.21-10.45,2.48
		c-15.17,1.1-28.2-7.92-29.09-20.16C807.79,578.19,819.36,567.36,834.54,566.25z M719.13,726.33c30.74,1.62,56.53,19.02,62.63,45.12
		c7.77,33.26-19.33,68.03-60.54,77.67c-41.21,9.64-80.93-9.51-88.71-42.76c-4.32-18.49,2.13-37.43,15.8-52.27
		c-22.02-3.54-39.72-17.14-44.26-36.57c-6.44-27.54,16.01-56.34,50.15-64.32c34.14-7.98,67.03,7.87,73.47,35.41
		C730.72,701.69,727.26,715.05,719.13,726.33z M391.09,662.14c29.46-6.89,57.84,6.79,63.4,30.56c5.56,23.78-13.82,48.63-43.28,55.52
		c-29.45,6.88-57.84-6.8-63.4-30.57C342.26,693.88,361.63,669.02,391.09,662.14z M1101.29,779.69c6.99,2.39,10.77,9.85,8.44,16.67
		c-2.33,6.82-9.88,10.41-16.87,8.02c-6.99-2.39-10.77-9.85-8.44-16.66C1086.74,780.89,1094.3,777.3,1101.29,779.69z M1107.2,895.07
		c29.46-6.89,57.85,6.79,63.4,30.55c5.55,23.77-13.82,48.62-43.28,55.51c-29.46,6.89-57.84-6.79-63.4-30.56
		C1058.37,926.81,1077.74,901.95,1107.2,895.07z M1070.76,720.26c15.69,5.36,24.17,22.1,18.94,37.41
		c-5.23,15.3-22.18,23.36-37.87,18.01c-15.69-5.36-24.17-22.11-18.94-37.41C1038.12,722.96,1055.07,714.9,1070.76,720.26z
		 M1007.95,889.96c11.13,3.8,17.15,15.69,13.44,26.54c-2.43,7.11-8.42,12.01-15.4,13.49c-4.42,9.55-15.64,14.35-26.07,10.79
		c-11.13-3.8-17.14-15.68-13.44-26.53c2.43-7.11,8.42-12.01,15.39-13.49C986.3,891.2,997.52,886.4,1007.95,889.96z M898.17,768.18
		c11.13,3.8,18.15,12.74,15.68,19.96c-2.47,7.22-13.49,9.99-24.62,6.19s-18.15-12.74-15.69-19.96
		C876.02,767.16,887.04,764.38,898.17,768.18z M748.45,911.11c11.13,3.8,18.15,12.74,15.68,19.96c-2.47,7.23-13.49,10-24.62,6.2
		s-18.15-12.73-15.68-19.96C726.29,910.08,737.32,907.31,748.45,911.11z M543.68,815.24c6.54,19.68,1.48,39.08-11.3,43.32
		c-12.77,4.24-28.42-8.28-34.96-27.96c-6.53-19.69-1.48-39.09,11.3-43.32C521.49,783.03,537.15,795.55,543.68,815.24z
		 M151.88,694.12c91.9-161.91,203.5-253.81,334.81-275.72C363.54,469.34,244.74,565.25,151.88,694.12z"/>
	<path class="st12" d="M397.01,324.87c-1.24-0.6-2.46-1.48-3.64-2.64c-20.01-12.88-39.2,0.82-56.43,13.12
		c-16.64,11.88-31.95,22.81-49.23,17.84c-2.95-0.85-6.21-1.81-9.62-2.82l-0.1-0.03l-0.01-0.01l-6.56-1.96
		c-18.56-5.55-37.98-11.35-56.33-14.38c-2.43-0.4-4.83-0.49-7.18-0.3c-10.11,0.83-19.85,6.68-27.58,14.8
		c-7.97,8.38-13.6,18.95-15.24,28.91c-0.45,2.71-0.59,5.33-0.39,7.77c5.19,63.23-11.95,76.33-26.23,87.23
		c-3.74,2.86-7.18,5.49-8.7,9.07c-17.27,40.66-4.93,64.25,2.8,79.01c8.02,15.32,13.14,25.09-2.06,35.39
		c-25.51,17.28-25.29,28.43-21.51,37.1c80.27-128.91,175.9-218.11,286.9-267.58c13.51-6.02,27.24-11.44,41.19-16.28l-1.68-0.67
		c-13.73-5.54-26.99-11.93-32.25-17.72C401.11,328.46,399.05,326.52,397.01,324.87 M647.36,319.9c-6.34-3.24-13.72-5.48-21.11-7.72
		c-11.86-3.6-23.75-7.2-33.97-14.7l-2.91-2.17c-2.43-1.82-4.89-3.67-7.38-5.49l-0.22-0.16l-0.01-0.01
		c-20.01-14.6-42.03-27.44-63.44-11.12c-29.29,22.3-36.87,22.37-58.21,22.55c-5.44,0.05-11.93,0.1-19.96,0.67
		c-4.41,0.31-11.54,6.65-17.51,11.96c-0.98,0.87-1.93,1.72-2.87,2.53c3.11,2.95,13.07,7.46,23.82,11.8
		c9.94,4,21.01,7.89,28.25,10.37C527.03,323.47,585.54,317.29,647.36,319.9z M770.06,335.68c-6.86-31.42-24-56.43-51.41-75.04
		c-31.36-21.3-76.18-34.58-134.46-39.86c-4.03,17.14,1,24.76,5.66,31.81c4.41,6.67,8.6,13.03,9.4,22.64l3.31,2.48l2.77,2.09
		c7.28,5.29,17.33,8.34,27.37,11.39c18.81,5.71,37.58,11.4,48.34,30.98C710.01,324.81,739.68,329.31,770.06,335.68z M1217.14,670.4
		l0.11-0.64c0.36-2.19,0.7-4.24,1.28-6.37c1.83-6.79,2.08-11.83,1.11-16.48c-1.05-5-3.62-10.28-7.24-16.94
		c-2.92-5.38-3.27-13.06-2.36-20.95c1.16-10.09,4.3-21.36,6.02-26.38c5.7-16.69-10.37-27.82-26.56-39.02
		c-17.93-12.41-35.97-24.89-37.96-46.92c-0.19-2.11-0.81-4.12-1.79-5.99c-3.4-6.53-10.98-11.71-20.2-15.17
		c-10.13-3.8-21.89-5.39-32.54-4.43c-4.09,0.37-7.97,1.11-11.45,2.25c-0.6,5.19-1.49,10.23-2.66,14.99
		c46.06,40.13,83.39,85.8,111.98,137C1203.01,639.92,1210.44,654.94,1217.14,670.4z M1064.21,465.41c0.01-0.17,0.02-0.35,0.03-0.52
		l0-0.05l0-0.01c0.65-10.86-0.31-22.23-3.29-32.6c-4.04-14.1-11.84-26.02-24.39-31.08c-33.16-13.36-36.52-24.2-40.39-36.66
		c-1.06-3.42-2.18-7.03-4.77-10.69c-27.63-39.02-69.8-31.69-104.13-25.71c-20.39,3.55-38.44,6.68-52.83,1.21
		c-23.34-8.87-26.42-6.89-34.36-1.77c-2.38,1.53-5.04,3.25-8.23,5.07c0.56,2.72,1.06,5.48,1.49,8.29
		c97.13,23.09,192.59,69.49,270.19,131.36C1063.84,470,1064.06,467.72,1064.21,465.41z M1239.08,672.52
		c9.38-10.36,19.52-20.2,30.42-29.52c21.95-18.78,47-35.5,75.15-50.16c2.05-1.23,3.16-2.15,3.33-2.73c0.01-0.03-0.14-0.28-0.45-0.75
		c-22.32-19.75-45.41-33-69.24-39.76c-16.74-4.75-33.94-6.3-51.59-4.64c10.99,11.28,17,24.94,10.21,44.82
		c-1.43,4.2-4.06,13.58-5.01,21.82c-0.45,3.91-0.62,7.08-0.18,7.89c4.55,8.38,7.84,15.27,9.45,22.97
		c1.69,8.06,1.39,16.28-1.44,26.74C1239.51,670.03,1239.3,671.21,1239.08,672.52z M1262.66,975.28c2.38-4.26,4.02-8.51,4.36-11.71
		c3.72-34.73,9.52-40.82,21.19-53.06c3.49-3.67,7.64-8.02,12.37-14.23c11.96-15.7,19.5-36.61,19.29-56.63
		c-0.17-16.57-5.8-32.42-18.92-43.7c-25.44-21.85-25.16-28.53-24.35-48.36c0.12-2.87,0.25-6.08,0.26-9.41
		c0.13-24.18-11.34-29.01-25.2-34.85c-2.39-1.01-4.83-2.04-7.32-3.16c-3.66,4.52-7.16,9.14-10.53,13.85
		C1259.45,791.17,1269.06,878.26,1262.66,975.28z M1324.46,788.67c0.76-1.41,1.46-2.9,2.09-4.44c2.4-5.85,3.68-12.06,3.42-17.17
		c-0.41-8.18-2.67-16.61-4.83-24.62c-5.68-21.1-10.72-39.88,8.95-57.94c3.76-3.45,7.01-10.29,8.57-17.37
		c1.22-5.55,1.35-10.66-0.34-13.11c-7.42-10.71-15.51-13.94-21.8-16.45c-1.7-0.68-3.32-1.32-4.87-2.03
		c-11.3,7.61-21.92,15.67-31.85,24.17c-8.61,7.36-16.69,15.05-24.27,23.07l0.59,0.25c21.29,8.97,38.89,16.39,38.69,55.29
		c-0.02,4.09-0.15,7.34-0.27,10.22c-0.49,11.84-0.65,15.82,16.72,30.74C1318.69,782.22,1321.75,785.36,1324.46,788.67z
		 M1256.12,1040.6c3.1-0.83,6.71-1.94,10.42-3.22c8.58-2.95,16.48-6.31,17.29-8.19c2.45-7.99,1.4-13.98,0.37-19.88
		c-1.92-10.92-3.8-21.65,5.58-40.17c4.58-9.05,3.29-14.37,1.59-20.06c-0.95,4.42-1.77,9.89-2.52,16.85
		c-0.96,8.94-6.74,21.32-13.94,30.46c-4.42,5.61-9.63,10.29-15.12,12.96C1258.74,1019.66,1257.52,1030.08,1256.12,1040.6z
		 M510.73,257.06c-0.94-2.16-2.83-4.4-5.15-6.25c-2.66-2.11-5.53-3.46-7.67-3.22c-19.86,2.25-30.97,2.93-41.81-0.33
		c-10.91-3.27-19.54-9.51-33.86-21.93c-15.08-13.07-30.54,8.53-42.02,25.71c-14.86,22.24-29.2,43.69-45.14,37.48
		c-11.53-4.5-8.22-5.84-12.04,5.35c-1.15,3.36-1.5,4.5-1.82,5.52l-1.43,4.57c-4.71,13.78-9.5,20.65-25.8,16.47
		c-0.5,3.21-0.66,7.25-0.8,10.71l-0.03,0.75l0.68,0.2c6.97,2,18.16-5.99,30.32-14.67c23.31-16.64,49.21-35.13,78.91-15.82
		c1.52-1.24,3.21-2.75,5-4.34c8.5-7.56,18.65-16.58,30.57-17.42c8.97-0.63,15.7-0.69,21.35-0.74c15.91-0.14,21.57-0.19,45.02-18.05
		C506.92,259.58,508.83,258.25,510.73,257.06z M271.43,325.46c0.29-5.2,0.85-10.81,2.44-15.46c3.48-10.18,9.97-16.13,22.11-11.98
		c2.01,0.69,2.5,0.12,2.94-1.19c0.95-2.77,1.13-3.35,1.35-4.05c0.8-2.56,1.65-5.29,1.91-6.03c1.64-4.79,2.56-8.37,3.25-11.06
		c1.94-7.55,2.96-11.49,9.22-14.34c6-2.73,10.08-0.99,18.6,2.65c2.86,1.22,6.43,2.74,9.74,4.04c0.45,0.17,9.07-14.4,18.92-29.15
		c19.25-28.8,41.9-57.59,74.39-30.47c12.36,10.31,19.29,15.78,26.16,17.85c6.93,2.07,16.09,1.41,33-0.51
		c8.25-0.94,16.92,2.38,23.75,7.8c5.1,4.05,9.38,9.47,11.85,15.29c11.86-2.19,23.13,0.14,33.89,4.82
		c-5.04-10.46-7.43-24.19,0.75-48.14c1.76-5.17,6.99-8.17,12.2-7.32c66.03,5.06,117.06,19.81,153.06,44.25
		c26.23,17.81,44.46,40.56,54.7,68.26c0.9-0.56,1.74-1.1,2.55-1.63c14.68-9.46,20.38-13.13,54.01-0.35
		c8.75,3.32,24.03,0.67,41.3-2.33c40.45-7.03,90.15-15.68,125.81,34.67c4.59,6.48,6.25,11.84,7.83,16.91
		c2.21,7.11,4.12,13.29,27.59,22.74c19.76,7.97,31.62,25.3,37.4,45.44c2.24,7.79,3.55,16.06,4.05,24.35
		c2.87-0.59,5.83-1.01,8.84-1.29c13.83-1.25,29.08,0.8,42.19,5.72c14.03,5.27,25.94,13.92,32.02,25.57
		c2.27,4.35,3.72,9.08,4.18,14.17c1.06,11.78,14.85,21.32,28.55,30.8l1.33,0.92c27.88-6.06,54.89-5.38,81.05,2.04
		c27.43,7.77,53.73,22.94,78.92,45.5c0.69,0.62,1.29,1.31,1.79,2.04l0.02-0.01c4.63,6.83,5.97,13.6,3.99,20.31
		c-1.81,6.15-6.3,11.35-13.47,15.6l-0.5,0.28c-5.75,2.99-11.36,6.06-16.82,9.23c6.96,3.64,14.63,9.3,22.14,20.14
		c5.47,7.89,6.14,19.36,3.73,30.36c-2.43,11.04-8.16,22.31-15.18,28.75c-9.86,9.06-6.44,21.8-2.59,36.1
		c2.44,9.05,5.01,18.59,5.53,29.22c0.41,8.34-1.45,17.93-4.99,26.55c-2.58,6.28-6.12,12.25-10.41,17.08
		c3.56,9.45,5.25,19.54,5.36,29.79c0.26,24.87-9.05,50.78-23.83,70.17c-2.26,2.97-4.34,5.51-6.27,7.75
		c-3.43,11.65-1.39,18.43,0.47,24.6c3.14,10.41,5.95,19.76-2.81,37.08c-6.08,12.02-4.82,19.19-3.54,26.49
		c1.51,8.61,3.04,17.35-1.29,30.89c-0.23,0.73-0.41,1.23-0.55,1.55l-0.02,0.04c-3.58,8.21-16.86,15.58-30.31,20.21
		c-7.03,2.42-14.5,4.2-20.83,5c-0.88,5.75-1.82,11.53-2.8,17.34c-0.55,5.22-4.8,9.45-10.23,9.79
		c-69.41,4.66-155.23-1.64-257.45-18.92c-253.45-42.86-460.22-109.94-690.33-224.53c-92.35-45.99-164.87-91.17-217.56-135.54
		c-3.98-3.24-5.26-8.94-2.77-13.65c7.81-14.68,15.79-28.92,23.94-42.75c-0.47-1.2-1.82-3.65-3.3-6.32
		c-9.49-17.14-21.55-38.93,25.79-70.99c1.06-0.72-2.63-2.29-5.1-7c-9.58-18.31-24.9-47.56-3.59-97.74
		c3.78-8.9,9.46-13.24,15.66-17.98c9.93-7.59,21.85-16.7,17.65-67.96c-0.36-4.31-0.14-8.74,0.59-13.16
		c2.35-14.23,10.1-29.03,21.02-40.5c11.16-11.73,25.8-20.22,41.7-21.52c4.15-0.34,8.36-0.2,12.57,0.5
		C236.05,315.17,254.03,320.29,271.43,325.46z M476.59,359.9c-1.22,0.61-2.56,0.98-3.94,1.1c-23.21,6.54-45.81,14.69-67.76,24.47
		c-112.21,50.02-208.42,142.65-288.64,277.88c-0.14,0.27-0.3,0.53-0.46,0.78c-6.92,11.69-13.72,23.69-20.39,36.01
		c50.79,41.48,119.6,83.84,206.42,127.07c218.28,108.69,443.86,181.9,684.27,222.55c96.21,16.27,177.43,22.65,243.67,19.16
		c0.93-5.74,1.81-11.44,2.64-17.11c0.04-0.65,0.13-1.31,0.28-1.95c2.43-16.83,4.41-33.39,5.95-49.66l0.02-0.42
		c0.02-0.23,0.05-0.45,0.08-0.67c13.35-142.82-7.67-263.85-63.07-363.05c-27.57-49.37-63.71-93.43-108.43-132.17
		c-0.26-0.07-0.52-0.14-0.79-0.23c-3.02-1.03-5.31-3.26-6.51-5.97C907.12,369.91,669.99,307.16,476.59,359.9z"/>
	<path class="st13" d="M1193.03,384.99c-4.11,79.77,153.03,86.73,208.72,132.98c55.81,46.35,54.25,103.8,22.48,164.54
		c-9.07,17.34,1.38,25.4,3.42,42.82c2.36,20.1-2.79,48.45-1.9,49.32c21.25,20.79,35.09,81.9,25.67,109.51
		c2.26,3.29,26.42-35.67,8.49-78.36c-13.1-31.2-21.11-23.89-9.46-63.47c11.74-39.88-15.43-28.94-3.25-64.6
		c12.47-36.52,27.61-100.24,10.53-137.57c-17.75-38.8-97.75-46.97-134.82-77.35c-12.54-10.27-42.27-22.81-56.26-40.56
		C1258.45,411.85,1193.71,371.94,1193.03,384.99 M120.13,833.14c323.13,265.48,659.58,371.34,1009.35,317.55
		C764.55,1151.69,428.09,1045.83,120.13,833.14z M640.7,132.8c-17-18.29-82.32-16.87-104.19-7.2c-20.27,8.96-15.19-1.28-37.99,20.82
		c-23.52,22.79-78.27,10.06-105.89,0.62c-29.95-10.23-62.68-22.14-86.79,2.38c-22.45,22.84-36.9,112.48-65.07,111.68
		c18.24,4.26,43.48-19.48,49.59-37.48c7.19-21.18,49.83-53.72,74.51-55.26c24.42-1.52,42.92-5.76,69.78,2.82
		c27.12,8.66,73.55-2.87,95.23-21.26C536.38,144.42,630.39,128.26,640.7,132.8z"/>
</g>
<g>
	<path class="st14" d="M688.26,1105.12c-28.92-0.23-57.8-6.82-83.72-19.66c-1.26,6.32-2.52,12.64-3.78,18.97
		c-30.29-7.96-56.91-28.99-71.67-56.61c-3.49,9.32-6.97,18.64-10.46,27.96c-31.39-26.24-52.3-64.68-57.25-105.29
		c-22.86,12.65-42.6,30.91-56.98,52.72c-1.73-40.99,4.86-82.32,19.24-120.75c-30.25,14.1-55.1,39.44-68.61,69.95
		c3.29-33.25,10.84-66.08,22.43-97.42c-21.41,8.69-39.94,24.31-52.13,43.94c2.15-38.67,7.26-80.06,32.89-109.11
		c15.88-18,38.52-29.76,51.64-49.86c24.11-36.96,7.78-85.31,1.7-129.02c-5.11-36.8-2.01-74.68,8.71-110.24
		c2.7-8.93,5.87-17.72,9.52-26.31c1.82-4.29,3.76-8.54,5.83-12.73c2.26-4.58,3.69-3.94,8.43-2.86c16.61,3.81,32.94,8.83,48.83,14.98
		c31.79,12.31,61.83,29.12,88.96,49.76c18.17,13.83,35.04,29.38,50.23,46.44c43.42-72.47,130.3-88.84,130.3-88.84
		c-8.55,9.45-17.11,18.9-25.66,28.35c8.48,17.27,16.97,34.54,25.45,51.8c51.19-46.04,114.07-78.98,181.06-94.86
		c31.01,58.34,35.32,130.22,11.5,191.85c-10.18,26.35-25.46,52.01-25.18,80.26c0.07,7.48,3.63,17.05,11.1,16.6
		c3.49-0.21,6.34-2.71,9.4-4.39c13.61-7.46,30.25,1.58,42.2,11.49c31.38,26.02,55.87,60.27,70.34,98.38
		c-16.73-7.59-33.46-15.19-50.18-22.78c6.18,17.15,12.37,34.3,18.55,51.45c-13.93-7.02-27.86-14.04-41.79-21.06
		c17.88,39.83,21.49,85.89,10.04,128.01c-12.7-28.54-36.08-52.18-64.49-65.18c6.89,25.24,7.1,52.28,0.59,77.63
		c-15.15-11.24-30.29-22.48-45.44-33.72c-29.11,50.21-75.7,90.07-129.81,111.08c0.34-4.84,0.67-9.68,1.01-14.52
		C737.99,1100.81,713.11,1105.31,688.26,1105.12z"/>
	<path class="st15" d="M439.23,704.36c0,0-43.12-120.79,5.3-213.08c0,0,100.37,16.64,184.08,112.71c0,0-8.08,14.37-11.35,29.5
		c0,0,48.24-84.72,104.18-104.89c0,0-23.74,26.22-27.27,66.06c0,0,31.27-25.21,34.29-53.46c0,0,25.72,66.57,78.17,115.99
		c0,0-27.23-33.28-32.78-70.6c0,0,76.91-67.32,163.14-86.24c0,0,47.66,83.21,0,189.11s7.56,98.34,7.56,98.34l13.62-8.32
		c0,0,40.09,3.03,77.91,75.64c0,0-26.31-12.1-55.14-22.69c0,0,18.07,17.4,29.42,52.2c0,0-22.56-12.15-50.68-15.89
		c0,0,42.36,37.07,32.53,112.71c0,0-19.67-31.77-75.64-50.68c0,0,16.14,46.65,10.59,76.4c0,0-27.74-21.68-40.85-28.24
		c0,0-53.71,88-112.71,108.42c0,0,1.01-8.83,0.76-14.88c0,0-85.86,49.67-175.5-4.03c0,0-6.05,11.35-7.56,20.42
		c0,0-41.23-12.48-62.41-69.59c0,0-12.1,24.96-15.89,36.69c0,0-26.1-17.78-43.87-103.26c0,0-36.23,17.15-52.09,36.31
		c0,0,1.28-55.47,29.52-104.89c0,0-52.95,10.59-71.11,36.81c0,0,7.56-43.87,29.75-66.06c0,0-49.42,10.09-65.05,28.24
		c0,0,6.01-72.11,76.88-103.38L439.23,704.36z"/>
	<linearGradient id="SVGID_1_" gradientUnits="userSpaceOnUse" x1="441.6136" y1="778.6201" x2="560.2224" y2="873.3079">
		<stop  offset="0.0196" style="stop-color:#F5831F"/>
		<stop  offset="0.514" style="stop-color:#EE3724"/>
		<stop  offset="1" style="stop-color:#EC1C30"/>
	</linearGradient>
	<path class="st16" d="M421.1,851.9c0,0,40.06,56.5,104.74,51.05s98.23-73.57,98.23-73.57l-64.07-6.51l-122.43,4.79L421.1,851.9z"/>
	
		<linearGradient id="SVGID_00000047060153005314780330000006587538141395595913_" gradientUnits="userSpaceOnUse" x1="659.4987" y1="597.9245" x2="580.156" y2="666.9993">
		<stop  offset="0" style="stop-color:#EE3724"/>
		<stop  offset="1" style="stop-color:#EC1C30"/>
	</linearGradient>
	<path style="fill:url(#SVGID_00000047060153005314780330000006587538141395595913_);" d="M648.18,661.23
		c0,0-9.68-19.56-39.17-28.75c0,0-27.4,43.04-48.03,28.07l25.4-17.99l9.32-13.11l3.82-32.78l5.06,2.02
		C604.58,598.7,638.53,622.4,648.18,661.23z"/>
	
		<linearGradient id="SVGID_00000145770524907713836030000005752008449894805648_" gradientUnits="userSpaceOnUse" x1="917.1683" y1="771.5766" x2="802.0435" y2="880.4784">
		<stop  offset="0.0196" style="stop-color:#F5831F"/>
		<stop  offset="0.514" style="stop-color:#EE3724"/>
		<stop  offset="1" style="stop-color:#EC1C30"/>
	</linearGradient>
	<path style="fill:url(#SVGID_00000145770524907713836030000005752008449894805648_);" d="M861.19,905.81
		c0,0,84.9-11.24,110.79-89.36l-91.63,0l-41.46,19.51l-96.58-16.08c0,0,21.44,69.2,73.89,65.77l21.77,5.2l10.5,18.69L861.19,905.81z
		"/>
	<path class="st19" d="M582.45,660c0,0,31.56,12.96,41.62,40.88c0,0,0.99-12-2.54-15.87c0,0,6.3,6.72,8.57,17.31
		c0,0,12.9,3.36,15.38,13.87c2.49,10.51-23.2,6.21-23.2,6.21l-35.91-7.47l-5.95-26.23l-5.8-15.89l-3.52-19.45L582.45,660z"/>
	<g>
		<polygon class="st14" points="876.71,916.91 873.71,914.92 873.33,915.99 		"/>
		<path class="st14" d="M871.67,913.57l-38.32-25.41c0,0-58.51-1.01-101.6-7.14c-43.09-6.13-43.65-45.31-43.65-45.31
			c-11.09,55.22-140.7,45.31-140.7,45.31c-27.13,9.28-41.87,29.36-48.95,42.53l2.63,4.13c6.17-5.7,13.03-11.28,13.03-11.28
			c28.24,74.13,99.85,111.58,99.85,111.58c-0.38-2.65,0-17.02,0-17.02s26.48,43.12,117.78,33.28
			c91.31-9.83,124.59-132.88,124.59-132.88l14.71,4.01L871.67,913.57z"/>
		<path class="st14" d="M495.95,928.55c-0.95,2.05-1.65,3.76-2.14,5.04c0.12,0.33,0.24,0.65,0.37,0.99c0.9-1.02,1.97-2.14,3.15-3.31
			L495.95,928.55z"/>
	</g>
	<path class="st20" d="M628.6,615.51c0,0,19.76,16.73,19.59,45.73c0,0-6.99-27.23-23.12-43.87
		C608.92,600.72,628.6,615.51,628.6,615.51z"/>
	<path class="st21" d="M821.55,655.62l-20.08-5.34c3.08,4.4,5.14,6.91,5.14,6.91c-32.77-30.88-55.1-68.45-67.25-92.29l0,0
		c0,0,25.36,83.97,66.23,114.61s24.22-5.17,24.22-5.17L821.55,655.62z"/>
	
		<linearGradient id="SVGID_00000150783952353169063510000015577545284357081505_" gradientUnits="userSpaceOnUse" x1="882.8638" y1="509.027" x2="880.0635" y2="695.7159">
		<stop  offset="0" style="stop-color:#EE3724"/>
		<stop  offset="1" style="stop-color:#EC1C30"/>
	</linearGradient>
	<path style="fill:url(#SVGID_00000150783952353169063510000015577545284357081505_);" d="M907.09,550.29
		c0,0-19.26,9.74-18.15,40.85l6.61-20.42c0,0,24.78,46.9,7.01,94.56c-17.78,47.66-46.21-9.46-46.21-9.46l-2.58-67.32l24.21-32.15
		C877.97,556.34,896.5,549.53,907.09,550.29z"/>
	
		<linearGradient id="SVGID_00000173853086869574322650000006793422164412903557_" gradientUnits="userSpaceOnUse" x1="507.1987" y1="503.3921" x2="504.3984" y2="690.0809">
		<stop  offset="0" style="stop-color:#EE3724"/>
		<stop  offset="1" style="stop-color:#EC1C30"/>
	</linearGradient>
	<path style="fill:url(#SVGID_00000173853086869574322650000006793422164412903557_);" d="M473.77,545.24
		c0,0,23.19,18.59,22.95,39.84l-7.19-12.48c0,0-20.8,42.36,1.89,83.59c22.69,41.23,46.5-14.37,46.5-14.37l-4.9-52.95l-23.45-28.37
		l-12.48-8.32L473.77,545.24z"/>
	
		<linearGradient id="SVGID_00000157306138186919282490000010403855330801538990_" gradientUnits="userSpaceOnUse" x1="601.3559" y1="1073.4987" x2="438.5595" y2="908.0444">
		<stop  offset="0.0196" style="stop-color:#F5831F"/>
		<stop  offset="0.514" style="stop-color:#EE3724"/>
		<stop  offset="1" style="stop-color:#EC1C30"/>
	</linearGradient>
	<path style="fill:url(#SVGID_00000157306138186919282490000010403855330801538990_);" d="M529.24,1002.64l-15.9,26.73
		c-27-28.74-38.18-82.96-38.18-82.96c-13.99-0.25-28.75,7.82-28.75,7.82c-7.56-35.17,4.54-73.12,4.54-73.12
		c-19.6-3.42-44.45,7.69-44.45,7.69c-0.95-19.67,3.6-36.92,3.6-36.92c-23.45-6.28-48.79,4.01-48.79,4.01
		c13.62-47.66,55.7-63.54,55.7-63.54l-2.37-11.49c-68.6,31.82-74.51,102.26-74.51,102.26c15.63-18.15,65.05-28.24,65.05-28.24
		c-22.19,22.19-29.75,66.06-29.75,66.06c18.15-26.22,71.11-36.81,71.11-36.81c-28.24,49.42-29.52,104.89-29.52,104.89
		c15.86-19.16,52.09-36.31,52.09-36.31c17.78,85.48,43.87,103.26,43.87,103.26c3.78-11.72,15.89-36.69,15.89-36.69
		c21.18,57.11,62.41,69.59,62.41,69.59c0.77-4.61,2.71-9.8,4.43-13.8C550.28,1055.3,529.24,1002.64,529.24,1002.64z"/>
	
		<linearGradient id="SVGID_00000181796391213230626300000004097018103235535287_" gradientUnits="userSpaceOnUse" x1="682.1235" y1="683.8005" x2="682.1235" y2="751.942">
		<stop  offset="0" style="stop-color:#EE3724"/>
		<stop  offset="1" style="stop-color:#EC1C30"/>
	</linearGradient>
	<path style="fill:url(#SVGID_00000181796391213230626300000004097018103235535287_);" d="M635.9,756.04c0,0,23.45-8.94,20.05-30.57
		c0,0,39.71-4.98,59.76,4.47c0,0-1.13,20.04,20.05,26.1c21.18,6.05,9.34-21.15,9.34-21.15l-10.85-10.94l-15.13-12.25l-46.52-3.69
		l-30.64,6.94l-17.88,9l-8.22,21.5L635.9,756.04z"/>
	<path class="st19" d="M626.12,608.82L626.12,608.82c1.45-3,2.48-4.83,2.48-4.83c-83.71-96.07-184.08-112.71-184.08-112.71
		c-48.41,92.29-5.3,213.08-5.3,213.08L433,725.47c29.27-0.18,67.56-7.46,29.58-50.12c-56.57-63.54-20.08-161.88-20.08-161.88
		c-8.07,25.22,5.55,63.54,5.55,63.54c-4.54-33.79,10.09-71.61,10.09-71.61C557.48,525.07,626.12,608.82,626.12,608.82z"/>
	<path class="st19" d="M922.6,513.22c12.1,37.07,10.59,71.11,10.59,71.11c7.56-42.36,0-68.08,0-68.08
		c31.77,82.45-2.98,160.78-2.98,160.78l-6.1,27.33l6.25,0.78c1.96-4.95,4.11-10.12,6.61-15.67c47.66-105.9,0-189.11,0-189.11
		c-86.24,18.91-163.14,86.24-163.14,86.24C883.01,510.95,922.6,513.22,922.6,513.22z"/>
	
		<linearGradient id="SVGID_00000127741272413418393010000004825158641230934712_" gradientUnits="userSpaceOnUse" x1="848.4801" y1="1073.9027" x2="952.1382" y2="924.3958">
		<stop  offset="0.0196" style="stop-color:#F5831F"/>
		<stop  offset="0.514" style="stop-color:#EE3724"/>
		<stop  offset="1" style="stop-color:#EC1C30"/>
	</linearGradient>
	<path style="fill:url(#SVGID_00000127741272413418393010000004825158641230934712_);" d="M970.43,783.18
		c0,0,31.59,24.68,48.61,58.34c0,0-29.12-9.83-43.49-14.37c0,0,10.6,18.14,12.1,39.61c0,0-17.27-4.64-37.19,0
		c0,0,31.14,28.61,25.09,80.73c0,0-29.87-16.54-66.07-24.02c0,0,8.07,26.8,0,56.77c0,0-6.56,0.12-25.21-8.66
		c0,0-34.93,70.64-110.12,109.22c-0.24,3.64-0.57,6.57-0.57,6.57c59-20.42,112.71-108.42,112.71-108.42
		c13.11,6.56,40.85,28.24,40.85,28.24c5.55-29.75-10.59-76.4-10.59-76.4c55.98,18.91,75.64,50.68,75.64,50.68
		c9.83-75.64-32.53-112.71-32.53-112.71c28.12,3.73,50.68,15.89,50.68,15.89c-11.35-34.8-29.42-52.2-29.42-52.2
		c28.83,10.59,55.14,22.69,55.14,22.69C1011.12,807.25,985.2,789.63,970.43,783.18z"/>
	<path class="st27" d="M682.52,839.07c45.27,0,81.98-14.5,81.98-32.39H600.54C600.54,824.57,637.25,839.07,682.52,839.07z"/>
	<path class="st14" d="M797.29,644.05c0,0,29.24-99.82,109.8-93.77c0,0-19.67,3.78-29.5,27.23c0,0,13.97,18.53,11.35,47.66
		c0,0,7.56-19.21,7.56-28.14c0,0,10.59,31.16-7.56,68.23s-45.01,27.23-45.01,27.23l-45.52-43.38L797.29,644.05z"/>
	<path class="st19" d="M737.07,790.17c-1.2-5.79-5.65-9.37-10.34-11.93c-4.71-2.64-9.97-4.31-15.26-5.65
		c-10.65-2.57-21.7-3.63-32.73-3.61c-11.02,0.09-22.08,0.99-32.73,3.62c-5.29,1.35-10.55,3.02-15.25,5.65
		c-4.69,2.55-9.14,6.13-10.35,11.92c-0.44-2.89,0.38-5.96,1.86-8.65c0.8-1.29,1.65-2.6,2.72-3.68c0.98-1.19,2.12-2.19,3.26-3.19
		c4.69-3.87,10.1-6.64,15.67-8.71c5.56-2.16,11.37-3.44,17.18-4.51c5.84-0.94,11.74-1.32,17.63-1.4c5.89,0.15,11.79,0.49,17.63,1.41
		c5.81,1.06,11.62,2.35,17.18,4.51c5.57,2.06,10.98,4.83,15.67,8.7c1.15,1,2.28,2,3.26,3.19c1.07,1.07,1.91,2.39,2.72,3.68
		C736.68,784.21,737.51,787.28,737.07,790.17z"/>
	<path class="st14" d="M740.85,793.8c-1.2-5.79-5.65-9.37-10.34-11.93c-4.71-2.64-9.97-4.31-15.26-5.65
		c-10.65-2.57-21.7-3.63-32.73-3.61c-11.02,0.09-22.08,0.99-32.73,3.62c-5.29,1.35-10.55,3.02-15.25,5.65
		c-4.69,2.55-9.14,6.13-10.35,11.92c-0.44-2.89,0.38-5.96,1.86-8.65c0.8-1.29,1.65-2.6,2.72-3.68c0.98-1.19,2.12-2.19,3.26-3.19
		c4.69-3.87,10.1-6.64,15.67-8.71c5.56-2.16,11.37-3.44,17.18-4.51c5.84-0.94,11.74-1.32,17.63-1.4c5.89,0.15,11.79,0.49,17.63,1.41
		c5.81,1.06,11.62,2.35,17.18,4.51c5.57,2.06,10.98,4.83,15.67,8.7c1.15,1,2.28,2,3.26,3.19c1.07,1.07,1.91,2.39,2.72,3.68
		C740.46,787.84,741.29,790.91,740.85,793.8z"/>
	<path class="st14" d="M648.18,661.23c0,0-13.54-60.01-53.89-75.14c0,0,5.88,36.7-9.08,51.94c0,0-26.73-91.28-111.45-92.79
		c0,0,26.73,10.59,32.78,29.25c0,0-8.57,27.23-4.54,50.43c0,0-7.06-22.19-9.58-34.8c0,0-7.06,41.86,1.51,71.11
		c8.57,29.25,44.88,26.22,44.88,26.22l15.63-10.09c0,0,49.93-19.67,47.91-75.64C602.37,601.72,631.47,615.34,648.18,661.23z"/>
	<path class="st28" d="M820.4,986.03c-15.14-45.59-66-79.12-126.45-79.12c-63.02,0-115.63,36.43-128.19,84.98
		c25.12,24,48.21,36.08,48.21,36.08c-0.38-2.65,0-17.02,0-17.02s26.48,43.12,117.78,33.28
		C771.74,1039.94,800.59,1013.92,820.4,986.03z"/>
	<path class="st29" d="M693.95,921.28c-58.81,0-106.48,39.05-106.48,87.21c0,0.67,0.04,1.33,0.06,2
		c15.25,11.63,26.43,17.49,26.43,17.49c-0.38-2.65,0-17.02,0-17.02s26.48,43.12,117.78,33.28c28.16-3.03,50.79-16.84,68.64-34.48
		c0.01-0.43,0.04-0.85,0.04-1.28C800.43,960.33,752.76,921.28,693.95,921.28z"/>
	<ellipse class="st14" cx="682.52" cy="806.12" rx="69.31" ry="27.38"/>
	<ellipse class="st30" cx="682.52" cy="796.14" rx="37.18" ry="4.72"/>
	<path class="st31" d="M650.27,992.05c0,0-35.3-64.55,37.82-53.46c0,0,3.21,26.6,16.45,19.23s-6.43-7.18-3.97-17.11
		c2.46-9.93,44-10.84,36.5,24.86s-18.34,29.88-18.34,29.88L650.27,992.05z"/>
	<circle class="st14" cx="975.55" cy="747.5" r="25.09"/>
	<circle class="st14" cx="391.92" cy="747.5" r="25.09"/>
	<circle class="st14" cx="628.6" cy="723.95" r="19.59"/>
	<circle class="st14" cx="741.01" cy="723.95" r="19.59"/>
	<circle class="st14" cx="856.34" cy="765.7" r="126.27"/>
	<circle class="st30" cx="856.34" cy="765.7" r="115.41"/>
	<circle class="st14" cx="856.34" cy="765.7" r="106.84"/>
	<g>
		<path class="st32" d="M770.18,765.7c-0.62-12.25,1.97-24.64,7-35.89c5.16-11.18,12.76-21.32,22.38-28.92
			c-8.77,8.52-16.08,18.45-21.02,29.54C773.43,741.44,770.8,753.49,770.18,765.7z"/>
		<path class="st32" d="M856.34,851.86c-7.62,0.26-15.31-0.56-22.74-2.48c-7.44-1.89-14.58-4.91-21.25-8.73
			c-6.61-3.93-12.68-8.75-17.97-14.31c-2.67-2.76-5.07-5.76-7.33-8.85c-2.11-3.19-3.97-6.55-5.96-9.79c2.2,3.13,4.25,6.33,6.54,9.35
			c2.36,2.97,4.83,5.86,7.56,8.48c5.38,5.31,11.35,10.06,17.91,13.83c6.5,3.87,13.52,6.81,20.79,8.91
			C841.17,850.36,848.72,851.57,856.34,851.86z"/>
		<path class="st32" d="M942.5,765.7c0.26,6.93-0.37,13.92-1.94,20.72c-1.54,6.8-4.04,13.38-7.23,19.6
			c-3.29,6.16-7.29,11.95-11.99,17.1c-4.69,5.16-10.07,9.68-15.92,13.41c5.53-4.18,10.58-8.94,15.06-14.17
			c4.47-5.23,8.39-10.92,11.53-17.04c3.25-6.06,5.69-12.53,7.44-19.18C941.19,779.49,942.21,772.62,942.5,765.7z"/>
		<path class="st32" d="M856.34,679.53c8.21-0.26,16.49,0.71,24.45,2.95c7.97,2.21,15.57,5.7,22.55,10.13
			c6.93,4.53,13.24,10,18.57,16.32c5.34,6.31,9.69,13.43,12.85,21.01c-3.66-7.35-8.3-14.17-13.71-20.26
			c-5.43-6.08-11.63-11.47-18.51-15.82c-6.81-4.46-14.28-7.87-22.07-10.28C872.67,681.19,864.54,679.82,856.34,679.53z"/>
	</g>
	<circle class="st14" cx="513.34" cy="765.7" r="126.27"/>
	<circle class="st30" cx="513.34" cy="765.7" r="115.41"/>
	<circle class="st14" cx="513.34" cy="765.7" r="106.84"/>
	<path class="st30" d="M824.91,887.95c-17.73-0.53-60-2.21-93.16-6.93c-43.09-6.13-43.65-45.31-43.65-45.31
		c-10.61,52.79-129.5,46.05-139.95,45.36c2.62,24.48,9.02,61.73,24.47,80.72c0,0-2.27-18.15,3.78-30.76v-24.21l3.53,24.46
		l51.92-2.77l1.03-41.1l4.79,41.1l48.66-1.26l1.77-35.81l3.28,35.81l56.48-2.52v-23.7l4.03,22.44l41.35-1.01v-10.09
		c0,0,14.37,27.23,1.26,47.91C794.5,960.28,827.2,934.77,824.91,887.95z"/>
	<path class="st30" d="M757.69,1003.65c-61.52,22.69-130.61-0.76-130.61-0.76c-12.1-4.79-19.67-22.95-19.67-22.95
		c-3.84,11.08-5.69,27.96-6.56,40.04c8,5.31,13.12,8,13.12,8c-0.38-2.65,0-17.02,0-17.02s26.48,43.12,117.78,33.28
		c21.74-2.34,40.19-11.11,55.69-23.1c3.09-35-11.84-50.27-11.84-50.27C771.05,990.79,757.69,1003.65,757.69,1003.65z"/>
	<path class="st33" d="M731.75,881.03c-43.09-6.13-43.65-45.31-43.65-45.31c-10.61,52.79-129.5,46.05-139.95,45.36
		c0.38,3.55,0.85,7.38,1.4,11.37l22.95-2.71l3.22,13.21l4.77-13.68c48.03,2.74,106.09-21.28,106.09-21.28l1.51,4.54
		c17.97,20.04,49.88,21.16,49.88,21.16c-9.31-0.96-16.98-6.41-16.98-6.41c22.13,8.7,62.37,6.12,62.37,6.12l2.92,1.2l1.72-8.3
		C770.11,885.23,749.62,883.57,731.75,881.03z"/>
	<path class="st33" d="M600.85,1019.99c8,5.31,13.12,8,13.12,8c-0.38-2.65,0-17.02,0-17.02s26.48,43.12,117.78,33.28
		c21.74-2.34,40.19-11.11,55.69-23.1c3.09-35-11.84-50.27-11.84-50.27s13.62,27.97-2.77,48.91c0,0-8.64,19.68-22.22,2.28
		c0,0,2.52,19.93-20.39,18.55c-22.91-1.38-21.72-12.63-21.72-12.63s-3.09,20.21-23.67,12.7c-20.58-7.51-18.85-17.23-18.85-17.23
		s-4.11,14.75-19.73,6.18c-15.62-8.58-17.18-17.31-17.18-17.31s-5.26,11.26-16.36-8.66c0,0-1.77,22.95-5.29,12.61
		c-3.53-10.34,0-36.31,0-36.31C603.57,991.03,601.72,1007.91,600.85,1019.99z"/>
	<path class="st33" d="M757.69,1003.65c-0.6,0.22-1.2,0.41-1.79,0.62c-1.82,6.02-4.06,8.96-4.06,8.96
		c24.15-11.09,23.76-42.36,23.76-42.36C771.05,990.79,757.69,1003.65,757.69,1003.65z"/>
	<path class="st34" d="M757.69,1003.65c-61.52,22.69-130.61-0.76-130.61-0.76c-12.1-4.79-19.67-22.95-19.67-22.95
		c-3.84,11.08-5.69,27.96-6.56,40.04c8,5.31,13.12,8,13.12,8c-0.38-2.65,0-17.02,0-17.02s26.48,43.12,117.78,33.28
		c21.74-2.34,40.19-11.11,55.69-23.1c3.09-35-11.84-50.27-11.84-50.27C771.05,990.79,757.69,1003.65,757.69,1003.65z"/>
	<g>
		<polygon class="st14" points="685.69,861.19 687.83,889.27 690.51,861.19 		"/>
		<polygon class="st14" points="574.21,883.66 575.72,902.95 577.61,883.66 		"/>
		<polygon class="st14" points="782.89,887.26 784.4,906.55 786.29,887.26 		"/>
		<path class="st14" d="M666.58,1041.5l-0.61-18.05l-3.06,17.15C664.11,1040.91,665.34,1041.2,666.58,1041.5z"/>
		<path class="st14" d="M750.6,1022.06l-0.63,18.55c1.26-0.37,2.5-0.76,3.73-1.17L750.6,1022.06z"/>
		<path class="st14" d="M631.73,1027.25l-2.66-14.93l-0.44,12.83C629.61,1025.84,630.63,1026.54,631.73,1027.25z"/>
		<path class="st14" d="M710.36,1045.63l-1.87-17.64l-1.88,17.7C707.84,1045.68,709.1,1045.65,710.36,1045.63z"/>
		<path class="st14" d="M618,1051.05c0,0,105.9,51.24,177.51-14.22C795.51,1036.83,727.94,1125.19,618,1051.05z"/>
	</g>
	<path class="st14" d="M865.61,922.46c-1.56,6.63-3.83,13.05-6.36,19.37c-2.51,6.33-5.52,12.46-8.79,18.45
		c-3.34,5.95-7.07,11.69-11.25,17.09c-4.22,5.37-8.92,10.38-14.18,14.68c2.11-2.69,4.46-5.1,6.38-7.89c2.14-2.6,4.02-5.4,5.95-8.15
		c3.68-5.62,7.27-11.3,10.51-17.19c3.28-5.87,6.32-11.87,9.3-17.92c1.49-3.02,2.92-6.08,4.29-9.17
		C862.93,928.68,864.23,925.57,865.61,922.46z"/>
	<path class="st14" d="M519.66,949.69l9.29,12.87c3.13,4.24,6.24,8.48,9.52,12.57c3.26,4.11,6.62,8.13,10.16,12
		c3.6,3.81,7.28,7.53,11.37,10.96c-4.73-2.46-9.06-5.7-13.01-9.32c-3.95-3.62-7.49-7.65-10.85-11.8
		C529.59,968.57,523.86,959.5,519.66,949.69z"/>
	<path class="st35" d="M744.87,952.16c0,0-37.19,30.26-76.02,7.56l8.07,31.27l47.91-9.08l20.05-2.51V952.16z"/>
	<path class="st36" d="M668.85,959.73l7.59,29.4c2.2,0.61,4.77,0.83,7.8,0.48l4.66-0.88c14.51-3.81,22.98-14.5,27.56-22.8
		C702.98,969.43,686.08,969.8,668.85,959.73z"/>
	<path class="st37" d="M627.53,1000.11c0,0,76.49,25.25,127.93,0c0,0,20.8-33.74-10.59-47.95c0,0-34.51,50.19-57.87,17.17
		c-21.51-30.41-37.82-20.2-37.82-20.2s11.35,10.59,4.92,31.1C654.1,980.24,620.64,979.99,627.53,1000.11z"/>
	<path class="st35" d="M755.46,1000.11c0,0,12.04-19.57,3.92-35.18c-21.54,52.06-66.02,49.59-75.66,17.49
		c-10.08-33.58-34.54-33.28-34.54-33.28c21.56,14.37,4.92,31.1,4.92,31.1c-35.41,0.75-26.56,19.88-26.56,19.88
		S704.02,1025.36,755.46,1000.11z"/>
	<path class="st33" d="M824.91,887.95c-8.81-0.26-23.7-0.81-40.51-1.87v20.47l4.48-13.24l23.65,5.45
		c9.83,37.19-18.03,61.52-18.03,61.52S827.2,934.77,824.91,887.95z"/>
	<path class="st14" d="M731.75,881.03c-43.09-6.13-43.65-45.31-43.65-45.31c-10.61,52.79-129.5,46.05-139.95,45.36
		c0.25,2.32,0.54,4.78,0.86,7.29c11.38-0.14,37.71-0.7,64.2-2.98c35.17-3.03,74.89-22.69,74.89-22.69s12.86,21.13,48.03,24.56
		c28.21,2.75,72.46,4.98,88.88,5.75c0.01-1.66-0.02-3.34-0.1-5.06C807.18,887.43,764.91,885.74,731.75,881.03z"/>
	<path class="st38" d="M710.03,1008.29c-46.84,6.2-79.83-13.68-83.18-15.79c-0.94,4.08,0.68,7.61,0.68,7.61s76.49,25.25,127.93,0
		c0,0,12.04-19.57,3.92-35.18C757.3,992.02,759.48,1001.75,710.03,1008.29z"/>
	<path class="st38" d="M670.54,959.13c-10.31-10.11-21.36-10-21.36-10c5.63,3.75,8.64,7.66,10.03,11.39
		C662.81,963.11,667.96,965.27,670.54,959.13z"/>
	<path class="st14" d="M684.82,966.33c1.44,1.91,2.97,3.74,4.72,5.33c1.65,1.68,3.52,3.11,5.45,4.39c3.9,2.47,8.39,3.99,12.93,3.72
		c4.55-0.23,8.87-2.01,12.95-4.26c1.97-1.24,3.88-2.63,5.79-4.02c1.81-1.52,3.58-3.11,5.47-4.61c-1.51,1.85-3.15,3.61-4.74,5.44
		c-1.8,1.59-3.65,3.18-5.59,4.65c-4.05,2.71-8.73,4.75-13.79,5.04c-5.06,0.25-10.09-1.56-13.99-4.54
		C690.1,974.47,686.92,970.66,684.82,966.33z"/>
	<g>
		<path class="st30" d="M753.7,964.93c-2.89,7.62-7.17,15.24-13.91,20.06C746.08,979.65,750.18,972.28,753.7,964.93L753.7,964.93z"
			/>
	</g>
	<path class="st14" d="M628.6,722.41c7.22-7.32,16.35-12.34,25.91-15.92c9.61-3.54,19.91-5.37,30.27-5.48
		c5.18-0.21,10.36,0.47,15.49,1.09c5.07,1.14,10.18,2.02,14.97,4.06c9.76,3.35,18.55,9.16,25.76,16.26
		c-10.19-1.63-19.27-3.99-28.61-4.88c-4.57-0.79-9.21-0.86-13.74-1.38l-6.86-0.2c-2.27-0.2-4.56-0.08-6.85-0.03
		c-9.13,0.08-18.31,0.71-27.62,1.92C647.99,719.01,638.62,720.62,628.6,722.41z"/>
	<polygon class="st39" points="564.09,742.83 543.1,721.84 513.34,751.6 483.58,721.84 462.59,742.83 492.35,772.59 462.59,802.36 
		483.58,823.34 513.34,793.58 543.1,823.34 564.09,802.36 534.33,772.59 	"/>
	<polygon class="st40" points="908.23,742.83 887.24,721.84 857.48,751.6 827.72,721.84 806.73,742.83 836.49,772.59 806.73,802.36 
		827.72,823.34 857.48,793.58 887.24,823.34 908.23,802.36 878.47,772.59 	"/>
	<polygon class="st20" points="907.09,735.93 886.1,714.94 856.34,744.71 826.57,714.94 805.58,735.93 835.35,765.7 805.58,795.46 
		826.57,816.45 856.34,786.68 886.1,816.45 907.09,795.46 877.33,765.7 	"/>
	
		<linearGradient id="SVGID_00000010296781711878734650000007640817842616020134_" gradientUnits="userSpaceOnUse" x1="856.9088" y1="710.8704" x2="856.9088" y2="811.0775">
		<stop  offset="0.014" style="stop-color:#F6AB1D"/>
		<stop  offset="0.4358" style="stop-color:#FAA31B"/>
		<stop  offset="1" style="stop-color:#F05223"/>
	</linearGradient>
	<polygon style="fill:url(#SVGID_00000010296781711878734650000007640817842616020134_);" points="877.33,765.7 904.21,738.81 
		887.24,721.84 857.48,751.6 827.72,721.84 809.61,739.95 835.35,765.7 832.47,768.57 836.49,772.59 809.61,799.48 826.57,816.45 
		856.34,786.68 886.1,816.45 904.21,798.34 878.47,772.59 881.35,769.72 	"/>
	<polygon class="st42" points="564.09,735.93 543.1,714.94 513.34,744.71 483.58,714.94 462.59,735.93 492.35,765.7 462.59,795.46 
		483.58,816.45 513.34,786.68 543.1,816.45 564.09,795.46 534.33,765.7 	"/>
	
		<linearGradient id="SVGID_00000039815922087242426420000009583909846190247087_" gradientUnits="userSpaceOnUse" x1="511.0882" y1="710.5981" x2="514.822" y2="806.4316">
		<stop  offset="0" style="stop-color:#EE3724"/>
		<stop  offset="1" style="stop-color:#EC1C30"/>
	</linearGradient>
	<polygon style="fill:url(#SVGID_00000039815922087242426420000009583909846190247087_);" points="513.34,750.08 483.58,720.32 
		465.27,738.62 492.35,765.7 489.67,768.38 492.35,771.07 465.27,798.14 483.58,816.45 513.34,786.68 543.1,816.45 561.41,798.14 
		534.33,771.07 537.01,768.38 534.33,765.7 561.41,738.62 543.1,720.32 	"/>
	<path class="st44" d="M570.87,932.29c0,0-0.86,11.27-1.45,23.83c-0.78,16.36-1.11,34.93,1.45,33.65c4.54-2.26,2.77-3.08,1.26-10.36
		c-1.51-7.28,2.28-30.48,1.64-37.03c-0.63-6.56,0.07-8.57,0.07-8.57l4.34-5.3l-1.02,41.1l3.04-41.1c0,0,1.51,30.01,1.51,27.61
		s1.26-8.63,1.26-8.63l-1.26-20.74l-7.56-1.26l-3.03,1.51L570.87,932.29z"/>
	<path class="st44" d="M794.5,960.28c0,0,1.76-18.53-2.4-21.94c-4.16-3.4-5.96-12.52-5.82-15.72c0.14-3.2-1.7-5.84-1.7-5.84
		l-1.7,1.51c0,0,3.52,13.99,5.99,18.53c2.47,4.54,3.23,6.05,3.23,7.56C792.11,945.91,794.5,960.28,794.5,960.28z"/>
	<path class="st44" d="M649.18,949.14v25.82c0,0-0.42,11.54,1.09,17.09c1.51,5.55,1.26,0.1,1.26-2.22s0.28-3.55,0.02-6.34
		c-0.27-2.79-1.54-5.53-1.15-7.18s0-6.95,0-6.95l0.58-4.43l1.82,5.94c0,0,3.53-1.26,1.77-3.03c-1.77-1.77,0.36-13.95,0.36-13.95
		S652.44,950.93,649.18,949.14z"/>
	<path class="st45" d="M570.09,981.34c0,0-0.76,5.67,1.89,5.42C574.63,986.5,570.47,983.35,570.09,981.34z"/>
	<g>
		<path class="st44" d="M781.82,909.18c0,0-1.38,10.21-1.11,16.07c0.27,5.86,1.87,11.56,1.7,13.63s-5.21,4.49-4.21,0
			s3.83-5.5,2.04-7.52c-1.79-2.02-2.04-8.57-1.03-13.62c1.01-5.04,1.03-10.84,1.03-10.84L781.82,909.18z"/>
		<path class="st45" d="M781.31,936.37c0,0,0.6,4.52-1.51,4.32C777.7,940.49,781.01,937.98,781.31,936.37z"/>
	</g>
	<g>
		<path class="st44" d="M638.07,921.37c0,0,0.86,6.35,0.69,10c-0.17,3.65-1.17,7.19-1.06,8.48c0.11,1.29,3.24,2.79,2.62,0
			c-0.63-2.79-2.39-3.42-1.27-4.68c1.11-1.26,1.27-5.33,0.64-8.47c-0.63-3.14-0.64-6.75-0.64-6.75L638.07,921.37z"/>
		<path class="st45" d="M638.39,938.28c0,0-0.37,2.81,0.94,2.69C640.64,940.84,638.58,939.28,638.39,938.28z"/>
	</g>
	<path class="st33" d="M568.6,956.07c1.27,2.03,2.59,3.98,4.01,5.73c0,0-2.27-18.15,3.78-30.76
		C576.39,931.03,568.61,935.51,568.6,956.07z"/>
	<polygon class="st33" points="793.24,922.46 793.24,912.37 788.88,921.28 755.17,922.46 747.86,901.03 751.89,923.47 	"/>
	<path class="st33" d="M681.29,873.54c-3.06,2.08-6.33,3.79-9.67,5.32c-3.33,1.55-6.78,2.85-10.26,4.02
		c-6.99,2.21-14.33,3.85-21.75,3.52l10.49-3.07l10.34-3.28C667.33,877.84,674.17,875.49,681.29,873.54z"/>
	<path class="st33" d="M618.69,890.31c-4.36,2.01-9.02,3.12-13.74,3.78c-4.71,0.56-9.64,0.69-14.25-0.78
		c4.77-0.31,9.32-0.84,13.96-1.44C609.3,891.3,613.91,890.61,618.69,890.31z"/>
	<path class="st20" d="M699.68,854.05c1.87,3.43,4.83,5.87,7.84,7.96c3,2.16,6.3,3.76,9.61,5.26c6.69,2.88,13.67,4.87,20.72,6.47
		c7.06,1.58,14.2,2.73,21.37,3.64c7.17,0.98,14.38,1.53,21.61,2.34c-3.62,0.07-7.25,0-10.88,0c-3.63-0.04-7.24-0.42-10.87-0.62
		c-7.25-0.56-14.46-1.74-21.63-3.16c-7.1-1.81-14.21-3.79-20.92-7.09c-3.31-1.73-6.61-3.53-9.57-5.94
		C704.09,860.48,701.16,857.75,699.68,854.05z"/>
	<path class="st20" d="M674.99,846.81c-2.71,3.4-5.98,6.34-9.43,9c-3.46,2.67-7.25,4.91-11.21,6.8c-3.96,1.89-8.22,3.2-12.53,3.97
		c-4.32,0.82-8.77,0.76-13.05,0.15c2.17-0.29,4.32-0.14,6.43-0.63c1.06-0.17,2.12-0.27,3.16-0.47l3.11-0.74
		c4.09-1.14,8.13-2.44,11.95-4.31c3.86-1.78,7.56-3.89,11.17-6.17C668.16,852.09,671.63,849.56,674.99,846.81z"/>
	<g>
		<path class="st42" d="M484.55,684.49c11.34-4.67,23.89-6.37,36.17-5.39c12.26,1.12,24.35,4.9,34.73,11.43
			c-10.96-5.42-22.76-9-34.86-9.94C508.5,679.45,496.27,680.99,484.55,684.49z"/>
		<path class="st42" d="M432.13,794.48c-2.79-7.1-4.59-14.62-5.26-22.27c-0.7-7.64-0.25-15.38,1.13-22.94
			c1.5-7.54,4.01-14.88,7.48-21.72c1.71-3.44,3.74-6.7,5.89-9.86c2.3-3.06,4.84-5.93,7.24-8.88c-2.21,3.11-4.54,6.12-6.63,9.29
			c-2.01,3.22-3.91,6.51-5.47,9.96c-3.21,6.85-5.69,14.06-7.05,21.5c-1.47,7.42-1.9,15.02-1.45,22.57
			C428.47,779.68,429.85,787.21,432.13,794.48z"/>
		<path class="st42" d="M542.13,846.9c-6.44,2.56-13.24,4.3-20.17,5.1c-6.93,0.82-13.97,0.66-20.89-0.27
			c-6.9-1.05-13.7-2.87-20.13-5.59c-6.43-2.7-12.49-6.25-17.95-10.52c5.79,3.82,11.96,6.98,18.38,9.46
			c6.42,2.46,13.1,4.26,19.91,5.18c6.79,1.04,13.71,1.17,20.56,0.61C528.69,850.28,535.5,848.95,542.13,846.9z"/>
		<path class="st42" d="M594.55,736.91c2.99,7.65,4.84,15.78,5.39,24.03c0.58,8.25-0.17,16.58-2.01,24.64
			c-1.95,8.04-5,15.83-9.18,22.96c-4.16,7.14-9.42,13.62-15.51,19.13c5.7-5.91,10.58-12.55,14.51-19.69
			c3.92-7.15,6.92-14.8,8.73-22.73c1.93-7.91,2.65-16.09,2.32-24.24C598.45,752.86,597.02,744.74,594.55,736.91z"/>
	</g>
	
		<linearGradient id="SVGID_00000005252997521484845750000011368675953164426159_" gradientUnits="userSpaceOnUse" x1="717.8519" y1="506.5518" x2="715.0515" y2="693.2407">
		<stop  offset="0" style="stop-color:#EE3724"/>
		<stop  offset="1" style="stop-color:#EC1C30"/>
	</linearGradient>
	<path style="fill:url(#SVGID_00000005252997521484845750000011368675953164426159_);" d="M739.36,564.9
		c-7.3-14.32-10.92-23.69-10.92-23.69c-3.03,28.24-34.29,53.46-34.29,53.46S723.49,591.52,739.36,564.9z"/>
	
		<linearGradient id="SVGID_00000054240285510958175860000017166234430094438839_" gradientUnits="userSpaceOnUse" x1="678.2981" y1="505.9586" x2="675.4978" y2="692.6473">
		<stop  offset="0" style="stop-color:#EE3724"/>
		<stop  offset="1" style="stop-color:#EC1C30"/>
	</linearGradient>
	<path style="fill:url(#SVGID_00000054240285510958175860000017166234430094438839_);" d="M721.42,528.6
		c-36.33,13.1-69.39,53.41-88.12,80.08c14.06-18.82,38.41-40.74,38.41-40.74c-6.31,11.29-11.85,38.33-11.85,38.33
		C669.44,558.86,721.42,528.6,721.42,528.6z"/>
	<path class="st45" d="M650.46,950.35c0,0,1.28-0.47,0,3.88s0.38,6.52,0.28,7.56s0.99,2.27,1.34,0.95c0.36-1.32,1.49-0.19,0.45-3.59
		C651.5,955.74,652.64,952.05,650.46,950.35z"/>
	<path class="st20" d="M648.18,704.36c4.4-4.25,9.86-7.31,15.6-9.51c5.75-2.22,11.89-3.57,18.1-3.82c6.19-0.29,12.47,0.3,18.39,2.07
		c5.98,1.54,11.53,4.39,16.48,7.86c-3.05-0.48-5.86-1.41-8.78-1.89c-2.91-0.51-5.74-1.15-8.63-1.41
		c-5.72-0.84-11.46-0.91-17.16-0.68c-5.71,0.24-11.4,1.02-17.05,2.3C659.47,700.56,653.87,702.23,648.18,704.36z"/>
	<g>
		<path class="st21" d="M957.11,901.47c0.18,0.49,0.33,0.99,0.49,1.48h6.22c-0.32-1.15-0.67-2.3-1.08-3.43
			c-0.09-0.26-0.2-0.51-0.3-0.77h-6.36C956.43,899.66,956.79,900.56,957.11,901.47z"/>
		<path class="st21" d="M965.81,915.95c-0.05-1.23-0.14-2.47-0.26-3.7h-5.29c0.33,1.39,0.64,2.79,0.93,4.2
			c0.26,1.16,0.46,2.33,0.64,3.5h3.97C965.87,918.62,965.89,917.29,965.81,915.95z"/>
		<path class="st21" d="M954,893.31h6.18c-1.41-3-3.03-5.9-4.87-8.64c-3.1-4.56-6.72-8.81-11.15-12.14
			c2.52,4.9,4.89,9.64,7.11,14.42C952.24,889.06,953.13,891.18,954,893.31z"/>
		<path class="st21" d="M962.51,925.48c0.22,2.23,0.42,4.48,0.67,6.81c0.8-2.19,1.41-4.48,1.88-6.81H962.51z"/>
	</g>
	<g>
		<path class="st21" d="M507.56,997.53l-0.72-1.69h-5.78c0.77,1.32,1.57,2.63,2.41,3.91c0.14,0.21,0.29,0.41,0.43,0.63h4.89
			C508.38,999.43,507.96,998.48,507.56,997.53z"/>
		<path class="st21" d="M501.85,984.08h-6.36c0.29,0.75,0.53,1.52,0.84,2.26c0.76,1.85,1.63,3.67,2.54,5.46h6.26L501.85,984.08z"/>
		<path class="st21" d="M493.76,979.44h6.12l-3.81-8.95c-1.93-4.54-3.9-9.08-6.16-13.66c-0.14,5.13,0.62,10.18,1.75,15.1
			C492.24,974.46,492.95,976.97,493.76,979.44z"/>
		<path class="st21" d="M507.57,1005.32c1.77,2.14,3.69,4.16,5.77,6.01c-0.76-2.07-1.6-4.05-2.44-6.01H507.57z"/>
	</g>
	<g>
		<path class="st19" d="M537.07,552.12c-3.89-2.57-7.96-4.86-12.16-6.86l-6.58,2.82c4.1,2.06,8.09,4.31,11.94,6.75l7.05-2.53
			C537.24,552.24,537.16,552.18,537.07,552.12z"/>
		<path class="st19" d="M509.78,539.66c-6.83-1.88-13.84-3.07-20.88-2.99c5.38,1.56,10.59,3.36,15.7,5.35L509.78,539.66z"/>
		<path class="st19" d="M547.3,560c-0.82-0.67-1.64-1.35-2.47-2.03l-6.27,2.43c1.69,1.28,3.34,2.6,5.05,3.87
			c3.01,2.72,6.23,5.28,9,8.28c5.97,5.67,10.78,12.35,15.97,19.08c-2.97-7.87-6.92-15.64-12.5-22.18
			C553.58,565.92,550.28,563.13,547.3,560z"/>
	</g>
	<g>
		<path class="st19" d="M841.77,564.55c0.11-0.08,0.21-0.16,0.32-0.23c1.75-1.22,3.44-2.53,5.23-3.69
			c7.11-4.72,14.82-8.46,22.87-11.42c8.08-2.89,16.53-4.96,25.36-5.73c-8.77-1.71-17.96-0.9-26.7,1.29
			c-8.78,2.18-17.17,5.96-24.8,10.87c-2.02,1.41-3.99,2.88-5.92,4.4L841.77,564.55z"/>
		<path class="st19" d="M828.79,568.44c-1.66,1.72-3.24,3.51-4.71,5.4c-0.72,0.86-1.46,1.7-2.15,2.59l-1.91,2.77l-0.96,1.44
			l2.67,2.49l1.34-1.47l2.14-2.44c0.75-0.78,1.56-1.5,2.33-2.26c1.57-1.49,3.11-2.98,4.62-4.51c0.09-0.08,0.18-0.16,0.27-0.24
			L828.79,568.44z"/>
		<path class="st19" d="M815.5,586.26c-1.89,3.42-3.62,6.92-5.23,10.43c2.55-2.86,4.82-5.83,7.2-8.71L815.5,586.26z"/>
	</g>
	<g>
		<path class="st14" d="M494.78,936.21c0.89-1.07,1.97-2.25,3.25-3.54l-2.92-5.76c-0.85,1.76-1.54,3.32-2.07,4.61
			C493.6,933.02,494.18,934.6,494.78,936.21z"/>
		<polygon class="st14" points="880.78,917.82 880.27,919.42 885.24,920.78 		"/>
		<polygon class="st14" points="877.1,918.56 877.89,915.91 874.23,913.48 872.82,917.4 		"/>
		<path class="st14" d="M872.18,912.12l-38-25.2l-0.36-0.24l-0.43-0.01c-0.59-0.01-58.91-1.08-101.42-7.12
			c-41.28-5.87-42.35-42.31-42.37-43.85l-0.23-13.84l-2.73,13.57c-10.71,53.3-137.83,44.22-139.12,44.11l-0.31-0.02l-0.29,0.1
			c-26.94,9.22-41.94,29.13-49.35,42.56l1.83,2.88c6.81-12.88,21.32-33.21,48.19-42.51c8.29,0.6,120.65,7.87,139.95-39.79
			c2.48,11.88,11.48,35.14,43.99,39.76c40.73,5.8,95.88,7.03,101.35,7.14l35.28,23.39l-12.88-3.51l-0.39,1.44
			c-0.33,1.22-34.05,122.18-123.31,131.79c-89.14,9.62-116.09-32.16-116.36-32.59l-2.63-4.25l-0.13,5
			c-0.03,1.17-0.24,9.63-0.14,14.43c-12.5-7.21-71.97-44.25-96.82-109.48l-0.73-1.93l-1.6,1.3c-0.42,0.34-6.93,5.64-12.91,11.15
			l1.63,2.57c4.37-4.04,9.15-8.09,11.57-10.1c28.62,72.54,99.09,110.06,99.8,110.43l2.58,1.35l-0.41-2.88
			c-0.22-1.52-0.16-7.7-0.08-12.46c7.61,9.06,32.52,31.9,90.04,31.9c8.16,0,16.99-0.46,26.51-1.49
			c85.9-9.25,121.3-118.66,125.45-132.54l13.2,3.59L872.18,912.12z"/>
		<path class="st14" d="M491.52,935.59c0,0.01-0.02,0.05-0.02,0.05l-2.35,7.79l3.56-4.63L491.52,935.59z"/>
	</g>
	<g>
		<circle class="st19" cx="744.39" cy="652.92" r="9.43"/>
		<circle class="st19" cx="737.02" cy="638.22" r="5.24"/>
		<circle class="st19" cx="724.65" cy="649.07" r="4.1"/>
	</g>
</g>
<g>
	<path class="st48" d="M251.12,1243.46c-1.31-2.05-2.52-4.85-3.64-8.39c-1.12-3.54-1.68-7.28-1.68-11.19c0-7.28,1.63-12.5,4.9-15.67
		c3.26-3.17,7.51-4.76,12.73-4.76h122c1.3,2.06,2.52,4.85,3.64,8.4c1.12,3.54,1.68,7.27,1.68,11.19c0,7.28-1.64,12.5-4.9,15.67
		c-3.27,3.17-7.51,4.76-12.73,4.76h-31.06v129.28c-2.05,0.56-5.27,1.12-9.65,1.68c-4.39,0.56-8.72,0.84-13.01,0.84
		c-4.29,0-8.07-0.33-11.33-0.98c-3.27-0.65-6.02-1.82-8.25-3.5c-2.24-1.68-3.92-4.01-5.04-7c-1.12-2.98-1.68-6.9-1.68-11.75v-108.57
		H251.12z"/>
	<path class="st48" d="M458.47,1233.67c10.07,0,19.26,1.03,27.56,3.08c8.3,2.06,15.39,5.18,21.27,9.37
		c5.88,4.2,10.4,9.51,13.57,15.95c3.17,6.44,4.76,14.04,4.76,22.8v62.68c0,4.85-1.36,8.81-4.06,11.89
		c-2.71,3.08-5.92,5.74-9.65,7.98c-12.13,7.28-29.2,10.91-51.21,10.91c-9.89,0-18.8-0.94-26.72-2.8
		c-7.93-1.86-14.74-4.66-20.43-8.39c-5.69-3.73-10.07-8.49-13.15-14.27c-3.08-5.78-4.62-12.5-4.62-20.15
		c0-12.87,3.82-22.76,11.47-29.66c7.65-6.9,19.49-11.19,35.54-12.87l36.66-3.92v-1.96c0-5.41-2.38-9.28-7.14-11.61
		c-4.76-2.33-11.61-3.5-20.57-3.5c-7.09,0-13.99,0.75-20.71,2.24c-6.72,1.5-12.78,3.36-18.19,5.6c-2.43-1.68-4.48-4.24-6.16-7.69
		c-1.68-3.45-2.52-7.04-2.52-10.77c0-4.85,1.16-8.72,3.5-11.61c2.33-2.89,5.92-5.36,10.77-7.42c5.41-2.05,11.8-3.54,19.17-4.48
		C444.99,1234.14,451.94,1233.67,458.47,1233.67z M460.71,1343.64c3.17,0,6.67-0.32,10.49-0.98c3.82-0.65,6.67-1.54,8.53-2.66
		v-22.39l-20.15,1.68c-5.23,0.38-9.51,1.5-12.87,3.36c-3.36,1.87-5.04,4.67-5.04,8.39c0,3.73,1.44,6.76,4.34,9.09
		C448.91,1342.47,453.8,1343.64,460.71,1343.64z"/>
	<path class="st48" d="M631.4,1271.16c-4.67,0-9.09,0.75-13.29,2.24c-4.2,1.5-7.83,3.69-10.91,6.58c-3.08,2.89-5.55,6.48-7.42,10.77
		c-1.87,4.29-2.8,9.33-2.8,15.11c0,11.57,3.31,20.24,9.93,26.02c6.62,5.78,14.69,8.67,24.2,8.67c5.6,0,10.44-0.65,14.55-1.96
		c4.1-1.3,7.74-2.7,10.91-4.2c3.73,2.62,6.53,5.46,8.39,8.54c1.86,3.08,2.8,6.76,2.8,11.05c0,7.65-3.64,13.57-10.91,17.77
		s-17.35,6.3-30.22,6.3c-11.75,0-22.39-1.73-31.9-5.18c-9.51-3.45-17.68-8.3-24.48-14.55c-6.81-6.25-12.08-13.75-15.81-22.53
		c-3.73-8.77-5.6-18.47-5.6-29.1c0-12.31,2-23.08,6.02-32.32c4.01-9.23,9.47-16.83,16.37-22.8c6.9-5.97,14.87-10.45,23.92-13.43
		c9.05-2.98,18.61-4.48,28.68-4.48c13.43,0,23.78,2.43,31.06,7.28c7.28,4.85,10.91,11.1,10.91,18.75c0,3.55-0.84,6.86-2.52,9.93
		c-1.68,3.08-3.64,5.74-5.88,7.98c-3.17-1.49-7-2.94-11.47-4.34C641.47,1271.86,636.62,1271.16,631.4,1271.16z"/>
	<path class="st48" d="M828.11,1305.86c0,11.57-1.78,21.87-5.32,30.92c-3.55,9.05-8.54,16.65-14.97,22.81
		c-6.44,6.16-14.13,10.82-23.08,13.99c-8.95,3.17-18.94,4.76-29.94,4.76c-11.01,0-20.99-1.68-29.94-5.04
		c-8.95-3.36-16.65-8.16-23.08-14.41c-6.44-6.25-11.43-13.85-14.97-22.8c-3.55-8.96-5.32-19.03-5.32-30.22
		c0-11,1.77-20.99,5.32-29.94c3.54-8.95,8.53-16.55,14.97-22.8c6.44-6.25,14.13-11.05,23.08-14.41c8.95-3.36,18.93-5.04,29.94-5.04
		c11,0,20.99,1.73,29.94,5.18c8.95,3.45,16.65,8.3,23.08,14.55c6.44,6.25,11.42,13.85,14.97,22.81
		C826.33,1285.16,828.11,1295.04,828.11,1305.86z M730.17,1305.86c0,11.38,2.19,20.1,6.58,26.16c4.38,6.06,10.49,9.09,18.33,9.09
		c7.83,0,13.85-3.08,18.05-9.23c4.2-6.16,6.3-14.83,6.3-26.02c0-11.19-2.15-19.82-6.44-25.88c-4.29-6.06-10.35-9.09-18.19-9.09
		s-13.9,3.03-18.19,9.09C732.31,1286.04,730.17,1294.67,730.17,1305.86z"/>
	<path class="st49" d="M941.44,1238.42c-14.37,0-25.37,4.39-33.02,13.15c-7.65,8.77-11.47,21.17-11.47,37.22
		c0,16.23,4.24,28.73,12.73,37.5c8.49,8.77,19.91,13.15,34.28,13.15c7.65,0,14.13-1.02,19.45-3.08c5.32-2.05,10.4-4.38,15.25-7
		c3.17,2.61,5.64,5.74,7.42,9.37c1.77,3.64,2.66,7.88,2.66,12.73c0,7.65-4.25,14.13-12.73,19.45c-8.49,5.32-21.41,7.98-38.76,7.98
		c-12.5,0-24.25-1.78-35.26-5.32c-11.01-3.54-20.62-9-28.82-16.37c-8.21-7.37-14.69-16.69-19.45-27.98
		c-4.76-11.28-7.13-24.76-7.13-40.43c0-14.55,2.28-27.37,6.86-38.48c4.57-11.1,10.82-20.47,18.75-28.12
		c7.93-7.65,17.21-13.43,27.84-17.35c10.63-3.92,22.01-5.88,34.14-5.88c17.16,0,30.45,2.8,39.88,8.39
		c9.42,5.6,14.13,12.78,14.13,21.55c0,4.85-1.22,9.05-3.64,12.59c-2.43,3.55-5.22,6.34-8.39,8.39c-4.85-3.17-10.03-5.88-15.53-8.11
		C955.1,1239.54,948.71,1238.42,941.44,1238.42z"/>
	<path class="st49" d="M1067.08,1233.67c10.07,0,19.26,1.03,27.56,3.08c8.3,2.06,15.39,5.18,21.27,9.37
		c5.88,4.2,10.4,9.51,13.57,15.95c3.17,6.44,4.76,14.04,4.76,22.8v62.68c0,4.85-1.36,8.81-4.06,11.89
		c-2.71,3.08-5.92,5.74-9.65,7.98c-12.13,7.28-29.2,10.91-51.21,10.91c-9.89,0-18.8-0.94-26.72-2.8
		c-7.93-1.86-14.74-4.66-20.43-8.39c-5.69-3.73-10.07-8.49-13.15-14.27c-3.08-5.78-4.62-12.5-4.62-20.15
		c0-12.87,3.82-22.76,11.47-29.66c7.65-6.9,19.49-11.19,35.54-12.87l36.66-3.92v-1.96c0-5.41-2.38-9.28-7.14-11.61
		c-4.76-2.33-11.61-3.5-20.57-3.5c-7.09,0-13.99,0.75-20.71,2.24c-6.72,1.5-12.78,3.36-18.19,5.6c-2.43-1.68-4.48-4.24-6.16-7.69
		c-1.68-3.45-2.52-7.04-2.52-10.77c0-4.85,1.16-8.72,3.5-11.61c2.33-2.89,5.92-5.36,10.77-7.42c5.41-2.05,11.8-3.54,19.17-4.48
		C1053.6,1234.14,1060.54,1233.67,1067.08,1233.67z M1069.31,1343.64c3.17,0,6.67-0.32,10.49-0.98c3.82-0.65,6.67-1.54,8.54-2.66
		v-22.39l-20.15,1.68c-5.22,0.38-9.51,1.5-12.87,3.36c-3.36,1.87-5.04,4.67-5.04,8.39c0,3.73,1.44,6.76,4.34,9.09
		C1057.51,1342.47,1062.41,1343.64,1069.31,1343.64z"/>
	<path class="st49" d="M1210.9,1327.13c0,4.85,1.54,8.3,4.62,10.35c3.08,2.06,7.42,3.08,13.01,3.08c2.8,0,5.69-0.23,8.67-0.7
		c2.98-0.46,5.6-1.07,7.83-1.82c1.68,2.06,3.12,4.34,4.34,6.86c1.21,2.52,1.82,5.55,1.82,9.09c0,7.09-2.66,12.87-7.97,17.35
		c-5.32,4.48-14.69,6.72-28.12,6.72c-16.42,0-29.06-3.73-37.92-11.19c-8.86-7.46-13.29-19.59-13.29-36.38v-119.76
		c2.05-0.56,4.99-1.16,8.81-1.82c3.82-0.65,7.88-0.98,12.17-0.98c8.21,0,14.59,1.45,19.17,4.34c4.57,2.89,6.86,9,6.86,18.33v17.91
		h36.66c1.12,2.05,2.19,4.62,3.22,7.7c1.02,3.08,1.54,6.48,1.54,10.21c0,6.53-1.45,11.24-4.34,14.13
		c-2.89,2.89-6.76,4.34-11.61,4.34h-25.46V1327.13z"/>
</g>
</svg>
