<svg xmlns="http://www.w3.org/2000/svg" xmlns:xlink="http://www.w3.org/1999/xlink" viewBox="0 0 2000 1997.15"><defs><style>.cls-1{fill:url(#linear-gradient);}.cls-2{fill:url(#linear-gradient-2);}.cls-3{fill:#db3e26;opacity:0.4;}.cls-4{fill:#fff;}</style><linearGradient id="linear-gradient" x1="1432.4" y1="294.07" x2="417.87" y2="1854.06" gradientUnits="userSpaceOnUse"><stop offset="0" stop-color="#f15623"/><stop offset="0.49" stop-color="#f15c23"/><stop offset="1" stop-color="#f26922"/></linearGradient><linearGradient id="linear-gradient-2" x1="562.7" y1="1638.06" x2="1563.34" y2="433.13" gradientUnits="userSpaceOnUse"><stop offset="0" stop-color="#f15623"/><stop offset="0.3" stop-color="#f26922"/></linearGradient></defs><title>logo</title><g id="Layer_2" data-name="Layer 2"><g id="Layer_1-2" data-name="Layer 1"><g id="Logo"><path class="cls-1" d="M1565.79,748.93l-56,638.76-15.13,172.58-19.29,220-12.17,138.86a85.92,85.92,0,0,1-24.41,52l-.39.4a1.88,1.88,0,0,1-.25.24c-.15.16-.3.32-.46.46a87.09,87.09,0,0,1-59.52,24.9H286c-172.41,0-300-139.65-284.75-312.06L83.14,748.93c11.38-125.74,95.37-234,206.74-283.47a327.56,327.56,0,0,1,133-28.58H1281C1453.45,436.88,1581,576.52,1565.79,748.93Z"/><path class="cls-2" d="M1998.77,312.05l-27.31,312.06-27.3,312-47.59,546.1q-.35,3.54-1,7a86.11,86.11,0,0,1-22.95,44.57h0l-.17.17-1.19,1.2a86.61,86.61,0,0,1-59.36,25.07H719.73c-172.41,0-300-139.64-284.75-312l71-811.34L516.9,312.05C532.11,139.64,683.85,0,856.26,0h858.15C1886.43,0,2014,139.64,1998.77,312.05Z"/><path class="cls-3" d="M1565.79,748.93l-71.13,811.34H719.73c-172.41,0-300-139.64-284.75-312l71-811.34H1281C1453.45,436.88,1581,576.52,1565.79,748.93Z"/><path class="cls-4" d="M1971.46,624.11l-27.3,312H1436.68l-23.8,273.05a87.11,87.11,0,0,1-85,78h-78c-86.21,0-149.79-69.82-142.38-156l17.16-195H855.48c-38.62.78-70.61-30.42-71.39-69a69,69,0,0,1,.39-9l7-78c7.41-86.21,83.47-156,169.68-156h190.74l17.16-195c7.41-86.2,83.48-156,169.68-156s149.79,69.82,142.38,156l-17.17,195Z"/></g></g></g></svg>